<svg width="42" height="43" viewBox="0 0 42 43" fill="none" xmlns="http://www.w3.org/2000/svg">
<g clip-path="url(#clip0_402_1135)">
<path d="M8.60721 33.2691H2.46094C1.78139 33.2691 1.23047 32.7182 1.23047 32.0386V3.38184C1.23047 2.70229 1.78139 2.15137 2.46094 2.15137H39.5391C40.2186 2.15137 40.7695 2.70229 40.7695 3.38184V32.0386C40.7695 32.7182 40.2186 33.2691 39.5391 33.2691H33.4391" stroke="#4C94B3" stroke-width="2.46094" stroke-miterlimit="10" stroke-linecap="round" stroke-linejoin="round"/>
<path d="M18.2538 33.2695H13.687" stroke="#4C94B3" stroke-width="2.46094" stroke-miterlimit="10" stroke-linecap="round" stroke-linejoin="round"/>
<path d="M28.3255 33.2695H23.3804" stroke="#4C94B3" stroke-width="2.46094" stroke-miterlimit="10" stroke-linecap="round" stroke-linejoin="round"/>
<path d="M20.7148 16.9209C22.074 16.9209 23.1758 15.8191 23.1758 14.46C23.1758 13.1008 22.074 11.999 20.7148 11.999C19.3557 11.999 18.2539 13.1008 18.2539 14.46C18.2539 15.8191 19.3557 16.9209 20.7148 16.9209Z" stroke="#4C94B3" stroke-width="2.46094" stroke-miterlimit="10" stroke-linecap="round" stroke-linejoin="round"/>
<path d="M11.0684 21.7998C12.4275 21.7998 13.5293 20.698 13.5293 19.3389C13.5293 17.9797 12.4275 16.8779 11.0684 16.8779C9.70922 16.8779 8.60742 17.9797 8.60742 19.3389C8.60742 20.698 9.70922 21.7998 11.0684 21.7998Z" stroke="#4C94B3" stroke-width="2.46094" stroke-miterlimit="10" stroke-linecap="round" stroke-linejoin="round"/>
<path d="M30.7866 18.6367C32.1458 18.6367 33.2476 17.5349 33.2476 16.1758C33.2476 14.8166 32.1458 13.7148 30.7866 13.7148C29.4275 13.7148 28.3257 14.8166 28.3257 16.1758C28.3257 17.5349 29.4275 18.6367 30.7866 18.6367Z" stroke="#4C94B3" stroke-width="2.46094" stroke-miterlimit="10" stroke-linecap="round" stroke-linejoin="round"/>
<path d="M40.7695 7.09961H1.23047" stroke="#4C94B3" stroke-width="2.46094" stroke-miterlimit="10" stroke-linecap="round" stroke-linejoin="round"/>
<path d="M35.8462 41.6904H6.1543" stroke="#4C94B3" stroke-width="2.46094" stroke-miterlimit="10" stroke-linecap="round" stroke-linejoin="round"/>
<path d="M28.3336 41.6904L33.2397 41.6904L33.2397 25.4564L28.3336 25.4564L28.3336 41.6904Z" stroke="#4C94B3" stroke-width="2.46094" stroke-miterlimit="10" stroke-linecap="round" stroke-linejoin="round"/>
<path d="M18.4742 41.6895L23.3804 41.6895L23.3804 23.7573L18.4742 23.7573L18.4742 41.6895Z" stroke="#4C94B3" stroke-width="2.46094" stroke-miterlimit="10" stroke-linecap="round" stroke-linejoin="round"/>
<path d="M8.61536 41.6904L13.5215 41.6904L13.5215 28.6083L8.61536 28.6083L8.61536 41.6904Z" stroke="#4C94B3" stroke-width="2.46094" stroke-miterlimit="10" stroke-linecap="round" stroke-linejoin="round"/>
<path d="M13.687 18.0137L18.2538 15.7041" stroke="#4C94B3" stroke-width="2.46094" stroke-miterlimit="10" stroke-linecap="round" stroke-linejoin="round"/>
<path d="M27.8996 15.684L23.4824 14.9316" stroke="#4C94B3" stroke-width="2.46094" stroke-miterlimit="10" stroke-linecap="round" stroke-linejoin="round"/>
</g>
<defs>
<clipPath id="clip0_402_1135">
<rect width="42" height="42" fill="white" transform="translate(0 0.920898)"/>
</clipPath>
</defs>
</svg>
