<svg width="42" height="43" viewBox="0 0 42 43" fill="none" xmlns="http://www.w3.org/2000/svg">
<path d="M7.875 12.0771V31.7646" stroke="#4C94B3" stroke-width="3" stroke-miterlimit="10" stroke-linecap="round" stroke-linejoin="round"/>
<path d="M14.4375 12.0771V25.2021" stroke="#4C94B3" stroke-width="3" stroke-miterlimit="10" stroke-linecap="round" stroke-linejoin="round"/>
<path d="M21 12.0771C21 12.0771 21 20.2581 21 25.5" stroke="#4C94B3" stroke-width="3" stroke-miterlimit="10" stroke-linecap="round" stroke-linejoin="round"/>
<path d="M27.5625 12.0771V25.2021" stroke="#4C94B3" stroke-width="3" stroke-miterlimit="10" stroke-linecap="round" stroke-linejoin="round"/>
<path d="M34.125 12.0771V31.7646" stroke="#4C94B3" stroke-width="3" stroke-miterlimit="10" stroke-linecap="round" stroke-linejoin="round"/>
<path d="M1.64062 12.0771V8.7959C1.64062 6.98375 3.10972 5.51465 4.92188 5.51465H8.20312" stroke="#4C94B3" stroke-width="3" stroke-miterlimit="10" stroke-linecap="round" stroke-linejoin="round"/>
<path d="M33.7969 5.51465H37.0781C38.8903 5.51465 40.3594 6.98375 40.3594 8.7959V12.0771" stroke="#4C94B3" stroke-width="3" stroke-miterlimit="10" stroke-linecap="round" stroke-linejoin="round"/>
<path d="M40.3594 31.7646V35.0459C40.3594 36.8581 38.8903 38.3271 37.0781 38.3271H33.7969" stroke="#4C94B3" stroke-width="3" stroke-miterlimit="10" stroke-linecap="round" stroke-linejoin="round"/>
<path d="M8.20312 38.3271H4.92188C3.10972 38.3271 1.64062 36.8581 1.64062 35.0459V31.7646" stroke="#4C94B3" stroke-width="3" stroke-miterlimit="10" stroke-linecap="round" stroke-linejoin="round"/>
</svg>
