<svg width="42" height="43" viewBox="0 0 42 43" fill="none" xmlns="http://www.w3.org/2000/svg">
<path d="M6.79412 24.2754V12.0381C6.79412 11.3559 7.34718 10.8029 8.02941 10.8029H12.9706V7.71462C12.9706 7.22596 13.2432 6.83016 13.6207 6.62669L20.4085 2.92427C20.7772 2.72316 21.2228 2.72316 21.5915 2.92427L28.3793 6.62669C28.7568 6.83016 29.0294 7.22596 29.0294 7.71462V10.8029H33.9706C34.6528 10.8029 35.2059 11.3559 35.2059 12.0381V24.2754L41.3499 27.6267C41.7274 27.8302 42 28.226 42 28.7146V36.1264C42 36.5784 41.7531 36.9944 41.3562 37.2108L34.5669 40.9141L34.5621 40.9167C34.1637 41.134 33.723 41.1066 33.3742 40.9141L26.5849 37.2108C26.1881 36.9944 25.9412 36.5784 25.9412 36.1264V34.2734H16.0588V36.1264C16.0588 36.5784 15.8119 36.9944 15.4151 37.2108L8.62576 40.9141C8.27704 41.1066 7.83632 41.1341 7.43789 40.9167C7.43627 40.9159 7.43467 40.915 7.43306 40.9141L0.643772 37.2108C0.24692 36.9944 0 36.5784 0 36.1264V28.7146C0 28.226 0.272576 27.8302 0.650143 27.6267L6.79412 24.2754ZM28.4118 35.3931L32.7353 37.7514V33.1538L28.4118 30.7955V35.3931ZM21.5915 19.9167C21.1931 20.134 20.7524 20.1066 20.4037 19.9141L13.6144 16.2108C13.2175 15.9944 12.9706 15.5784 12.9706 15.1264V13.2734H9.26471V24.2754L15.4087 27.6267C15.7862 27.8302 16.0588 28.226 16.0588 28.7146V31.8029H25.9412V28.7146C25.9412 28.226 26.2138 27.8302 26.5913 27.6267L32.7353 24.2754V13.2734H29.0294V15.1264C29.0294 15.5784 28.7825 15.9944 28.3856 16.2108L21.5963 19.9141L21.5915 19.9167ZM39.5294 35.3931V30.7955L35.2059 33.1538V37.7514L39.5294 35.3931ZM33.9706 31.0134L38.185 28.7146L33.9706 26.4159L29.7562 28.7146L33.9706 31.0134ZM2.47059 30.7955V35.3931L6.79412 37.7514V33.1538L2.47059 30.7955ZM13.5882 35.3931V30.7955L9.26471 33.1538V37.7514L13.5882 35.3931ZM8.02941 31.0134L12.2438 28.7146L8.02941 26.4159L3.815 28.7146L8.02941 31.0134ZM15.4412 9.79552V14.3931L19.7647 16.7514V12.1538L15.4412 9.79552ZM26.5588 9.79552L22.2353 12.1538V16.7514L26.5588 14.3931V9.79552ZM25.2144 7.71462L21 5.41586L16.7856 7.71462L21 10.0134L25.2144 7.71462Z" fill="#4C94B3"/>
</svg>
