<svg width="42" height="42" viewBox="0 0 42 42" fill="none" xmlns="http://www.w3.org/2000/svg">
<path d="M7.87756 6.56445C4.99178 6.56445 2.625 8.92117 2.625 11.807V19.6845C2.625 22.5703 4.99176 24.937 7.87756 24.937V28.8797C7.87968 29.1381 7.95799 29.3899 8.10268 29.604C8.24737 29.818 8.452 29.9847 8.69095 30.0829C8.92989 30.1812 9.19251 30.2065 9.44592 30.1562C9.69932 30.1059 9.93223 29.982 10.1155 29.7998L14.9784 24.937H23.6301C26.5159 24.937 28.8724 22.5703 28.8724 19.6845V11.807C28.8724 8.92117 26.5159 6.56445 23.6301 6.56445H7.87756ZM7.87756 9.19222H23.6301C25.1071 9.19222 26.2577 10.3299 26.2577 11.807V19.6845C26.2577 21.1614 25.1071 22.3095 23.6301 22.3095H14.4375C14.0909 22.3116 13.7591 22.4507 13.5146 22.6965L10.5026 25.7109V23.6269C10.5039 23.2788 10.3669 22.9445 10.1217 22.6974C9.87655 22.4503 9.54327 22.3106 9.19519 22.3092H7.87756C6.40062 22.3092 5.25256 21.1611 5.25256 19.6842V11.8067C5.25256 10.3296 6.4006 9.19222 7.87756 9.19222ZM30.1901 11.807V14.4317H34.125C35.602 14.4317 36.75 15.5825 36.75 17.0595V24.937C36.75 26.4139 35.6019 27.5621 34.125 27.5621H32.8151C32.6418 27.5614 32.4702 27.5951 32.31 27.6611C32.1499 27.727 32.0044 27.8241 31.8819 27.9466C31.7594 28.0691 31.6624 28.2145 31.5964 28.3747C31.5304 28.5349 31.4968 28.7065 31.4974 28.8797V30.9534L28.4956 27.949C28.3736 27.8264 28.2286 27.7293 28.0689 27.6629C27.9093 27.5965 27.738 27.5621 27.5651 27.5621H18.3801C17.39 27.5621 16.5568 27.0399 16.1089 26.2547H15.5219L13.9889 27.7876C14.9288 29.2256 16.5455 30.1871 18.3801 30.1871H27.0216L31.8871 35.0499C32.0708 35.2325 32.3044 35.3568 32.5585 35.4069C32.8127 35.457 33.0759 35.4307 33.3152 35.3315C33.5544 35.2323 33.759 35.0644 33.9031 34.8492C34.0472 34.634 34.1244 34.3809 34.125 34.1219V30.1871C37.0108 30.1871 39.375 27.8228 39.375 24.937V17.0595C39.375 14.1737 37.0108 11.807 34.125 11.807H30.1901Z" fill="#4C94B3"/>
</svg>
