<svg width="42" height="42" viewBox="0 0 42 42" fill="none" xmlns="http://www.w3.org/2000/svg">
<g clip-path="url(#clip0_402_863)">
<path d="M15.7798 21.0002L19.26 24.4805L26.2206 17.52" stroke="#4C94B3" stroke-width="2.46094" stroke-miterlimit="10" stroke-linecap="round" stroke-linejoin="round"/>
<mask id="mask0_402_863" style="mask-type:luminance" maskUnits="userSpaceOnUse" x="0" y="0" width="42" height="42">
<path d="M0 3.8147e-06H42V42H0V3.8147e-06Z" fill="white"/>
</mask>
<g mask="url(#mask0_402_863)">
<path d="M21 32.4844C14.6573 32.4844 9.51562 27.3427 9.51562 21C9.51562 14.6573 14.6573 9.51563 21 9.51563C27.3427 9.51563 32.4844 14.6573 32.4844 21C32.4844 27.3427 27.3427 32.4844 21 32.4844ZM37.9131 17.7188C37.466 15.4005 36.5552 13.2474 35.2793 11.361L37.2994 9.34107L32.6589 4.70064L30.639 6.72066C28.7526 5.44475 26.5995 4.53404 24.2812 4.08689V1.23048H17.7187V4.08689C15.4005 4.53404 13.2474 5.44475 11.361 6.72066L9.34106 4.70064L4.70064 9.34107L6.72065 11.361C5.44474 13.2474 4.53403 15.4005 4.08688 17.7188H1.23047V24.2813H4.08688C4.53403 26.5995 5.44474 28.7526 6.72065 30.639L4.70064 32.6589L9.34106 37.2994L11.361 35.2793C13.2474 36.5552 15.4005 37.466 17.7187 37.913V40.7695H24.2812V37.913C26.5995 37.466 28.7526 36.5552 30.639 35.2793L32.6589 37.2994L37.2994 32.6589L35.2793 30.639C36.5552 28.7526 37.466 26.5995 37.9131 24.2813H40.7695V17.7188H37.9131Z" stroke="#4C94B3" stroke-width="2.46094" stroke-miterlimit="10" stroke-linecap="round" stroke-linejoin="round"/>
</g>
</g>
<defs>
<clipPath id="clip0_402_863">
<rect width="42" height="42" fill="white"/>
</clipPath>
</defs>
</svg>
