<svg width="42" height="43" viewBox="0 0 42 43" fill="none" xmlns="http://www.w3.org/2000/svg">
<g clip-path="url(#clip0_402_988)">
<path d="M37.4883 28.1528C35.4271 28.1528 33.6856 29.5427 33.1485 31.434H28.793V26.6307H33.2401C38.0704 26.6307 42 22.7011 42 17.8708C42 13.9981 39.4314 10.5959 35.785 9.48782C34.6827 5.07421 30.6986 1.9087 26.0845 1.9087C24.2958 1.9087 22.5823 2.36996 21.0701 3.25123C19.4686 1.78664 17.3687 0.963867 15.1623 0.963867C10.4297 0.963867 6.5616 4.73657 6.40722 9.4322C2.66159 10.4792 0 13.9086 0 17.8708C0 22.7011 3.92963 26.6307 8.75987 26.6307H13.207V31.434H8.8515C8.31444 29.5427 6.57292 28.1528 4.51172 28.1528C2.02396 28.1528 0 30.1768 0 32.6645C0 35.1523 2.02396 37.1762 4.51172 37.1762C6.57292 37.1762 8.31436 35.7864 8.8515 33.895H14.4375C15.117 33.895 15.668 33.3441 15.668 32.6645V26.6307H19.7695V34.0669C17.8781 34.604 16.4883 36.3455 16.4883 38.4067C16.4883 40.8945 18.5122 42.9184 21 42.9184C23.4878 42.9184 25.5117 40.8945 25.5117 38.4067C25.5117 36.3455 24.1219 34.6041 22.2305 34.0669V26.6307H26.332V32.6645C26.332 33.3441 26.883 33.895 27.5625 33.895H33.1485C33.6856 35.7864 35.4271 37.1762 37.4883 37.1762C39.976 37.1762 42 35.1523 42 32.6645C42 30.1768 39.976 28.1528 37.4883 28.1528ZM4.51172 34.7153C3.38092 34.7153 2.46094 33.7953 2.46094 32.6645C2.46094 31.5337 3.38092 30.6137 4.51172 30.6137C5.64252 30.6137 6.5625 31.5337 6.5625 32.6645C6.5625 33.7953 5.64252 34.7153 4.51172 34.7153ZM23.0508 38.4067C23.0508 39.5375 22.1308 40.4575 21 40.4575C19.8692 40.4575 18.9492 39.5375 18.9492 38.4067C18.9492 37.2759 19.8692 36.3559 21 36.3559C22.1308 36.3559 23.0508 37.2759 23.0508 38.4067ZM8.75987 24.1698C5.28667 24.1698 2.46094 21.3441 2.46094 17.8708C2.46094 14.7665 4.77479 12.0871 7.84301 11.6384C8.49048 11.5438 8.95051 10.9589 8.89014 10.3074C8.87234 10.1152 8.86331 9.91881 8.86331 9.72366C8.86331 6.25054 11.689 3.42489 15.1622 3.42489C17.0153 3.42489 18.7628 4.23043 19.9566 5.63497C20.3757 6.12806 21.105 6.21223 21.6255 5.82766C22.916 4.87381 24.4579 4.36964 26.0844 4.36964C29.8273 4.36964 32.94 7.11597 33.5218 10.6885C33.6041 11.1937 33.9906 11.5951 34.4922 11.6967C37.4165 12.2887 39.539 14.8852 39.539 17.8708C39.539 21.3441 36.7132 24.1698 33.24 24.1698H8.75987ZM37.4883 34.7153C36.3575 34.7153 35.4375 33.7953 35.4375 32.6645C35.4375 31.5337 36.3575 30.6137 37.4883 30.6137C38.6191 30.6137 39.5391 31.5337 39.5391 32.6645C39.5391 33.7953 38.6191 34.7153 37.4883 34.7153Z" fill="#4C94B3"/>
</g>
<defs>
<clipPath id="clip0_402_988">
<rect width="42" height="42" fill="white" transform="translate(0 0.941406)"/>
</clipPath>
</defs>
</svg>
