<svg width="68" height="68" viewBox="0 0 68 68" fill="none" xmlns="http://www.w3.org/2000/svg">
<path d="M65.9759 57.9348C65.6179 57.3808 65.0129 57.0498 64.3569 57.0498H3.64691C2.9909 57.0498 2.38592 57.3808 2.02789 57.9348C1.66888 58.4908 1.61492 59.1798 1.86688 59.7298L2.72589 62.6498C3.56488 64.5028 5.41387 65.6998 7.43688 65.6998H60.5468C62.5689 65.6998 64.4179 64.5028 65.2758 62.6018L66.1188 59.7788C66.3889 59.1798 66.3349 58.4908 65.9759 57.9348ZM39.1669 62.5948H28.8268C28.1569 62.5948 27.6069 62.0448 27.6069 61.3748C27.6069 60.6948 28.1569 60.1548 28.8268 60.1548H39.1669C39.8369 60.1548 40.3869 60.6948 40.3869 61.3748C40.3869 62.0448 39.8369 62.5948 39.1669 62.5948Z" fill="#4C94B3"/>
<path d="M61.3368 22.9247C61.3368 20.5147 59.3867 18.5547 56.9767 18.5547H53.1067V22.8047C53.1067 22.8947 53.0967 22.9847 53.0868 23.0747H55.1167C56.0568 23.0747 56.8168 23.8447 56.8168 24.7847V51.7847C56.8168 52.7247 56.0568 53.4947 55.1167 53.4947H12.8867C11.9468 53.4947 11.1768 52.7247 11.1768 51.7847V24.7847C11.1768 23.8447 11.9468 23.0747 12.8867 23.0747H14.9167C14.9067 22.9847 14.8967 22.8947 14.8967 22.8047V18.5547H11.0267C8.61676 18.5547 6.66675 20.5147 6.66675 22.9247V56.3047H61.3368V22.9247Z" fill="#4C94B3"/>
<path d="M16.697 24.0633L20.6471 24.8133C20.8361 24.8483 20.999 24.9863 21.062 25.1583C21.2311 25.6443 21.4351 26.1383 21.6691 26.6283C21.749 26.7943 21.733 26.9993 21.6271 27.1533L19.3561 30.4853C19.0081 31.0003 19.066 31.6703 19.5021 32.1203L22.541 35.1503C22.9811 35.5903 23.666 35.6533 24.1681 35.3043L27.495 33.0363C27.656 32.9293 27.868 32.9123 28.035 32.9933C28.5481 33.2383 29.025 33.4363 29.4911 33.5983C29.6801 33.6643 29.813 33.8193 29.848 34.0143L30.598 37.9633C30.7111 38.5703 31.24 39.0103 31.8571 39.0103H36.1471C36.764 39.0103 37.2931 38.5703 37.406 37.9643L38.156 34.0113C38.1901 33.8223 38.3241 33.6633 38.5 33.5993C38.9861 33.4303 39.479 33.2263 39.9701 32.9923C40.1371 32.9123 40.342 32.9293 40.4961 33.0343L43.833 35.3033C44.337 35.6533 45.0221 35.5883 45.462 35.1503L48.4921 32.1193C48.9281 31.6843 48.994 30.9963 48.6471 30.4833L46.375 27.1513C46.27 26.9993 46.254 26.7943 46.3351 26.6263C46.568 26.1383 46.7721 25.6443 46.9391 25.1633C47.004 24.9863 47.1681 24.8483 47.3571 24.8133L51.2991 24.0643C51.546 24.0233 51.782 23.9003 51.9451 23.7353C52.207 23.5033 52.352 23.1723 52.352 22.8043V18.5143C52.352 17.8963 51.925 17.3753 51.306 17.2463L47.3561 16.5063C47.165 16.4703 47.005 16.3333 46.941 16.1513C46.779 15.6833 46.5801 15.2053 46.337 14.6963C46.254 14.5193 46.27 14.3163 46.3771 14.1563L48.645 10.8283C48.9961 10.3243 48.932 9.6383 48.493 9.20032L45.462 6.1593C45.026 5.7243 44.3411 5.66229 43.8361 6.01434L40.494 8.28632C40.3411 8.3913 40.136 8.40729 39.968 8.32629C39.479 8.09332 38.9861 7.88934 38.506 7.72229C38.328 7.65729 38.191 7.49432 38.156 7.30432L37.405 3.3443C37.29 2.73932 36.761 2.30029 36.1471 2.30029H31.8571C31.243 2.30029 30.714 2.73932 30.598 3.34534L29.848 7.3053C29.812 7.49634 29.676 7.65631 29.494 7.72034C29.025 7.8833 28.5481 8.0813 28.0341 8.32629C27.8661 8.40729 27.655 8.38934 27.498 8.2843L24.171 6.0163C23.662 5.66333 22.9761 5.7243 22.541 6.1593L19.498 9.20331C19.0701 9.64532 19.011 10.3283 19.3571 10.8263L21.625 14.1523C21.734 14.3163 21.749 14.5193 21.6681 14.6933C21.4231 15.2053 21.2251 15.6833 21.063 16.1493C20.998 16.3333 20.839 16.4703 20.6481 16.5063L16.6901 17.2473C16.083 17.3743 15.6421 17.9073 15.6421 18.5143V22.8043C15.6421 23.1543 15.787 23.4903 16.042 23.7303C16.235 23.9083 16.464 24.0243 16.697 24.0633ZM34.0011 13.0713C38.1841 13.0713 41.588 16.4743 41.588 20.6583C41.588 24.8413 38.1841 28.2453 34.0011 28.2453C29.817 28.2453 26.4131 24.8413 26.4131 20.6583C26.4131 16.4743 29.817 13.0713 34.0011 13.0713ZM16.6691 23.2653C16.6211 23.2393 16.582 23.2083 16.5541 23.1813V23.1803C16.583 23.2083 16.6221 23.2393 16.6691 23.2653Z" fill="#6BC067"/>
</svg>
