<svg width="42" height="43" viewBox="0 0 42 43" fill="none" xmlns="http://www.w3.org/2000/svg">
<g clip-path="url(#clip0_402_1104)">
<path d="M33.2509 34.0251C29.9964 34.0251 27.3486 31.3774 27.3486 28.1229C27.3486 24.8684 29.9964 22.2207 33.2509 22.2207C36.5053 22.2207 39.1531 24.8684 39.1531 28.1229C39.1531 31.3774 36.5052 34.0251 33.2509 34.0251ZM33.2509 24.913C31.4809 24.913 30.0409 26.353 30.0409 28.123C30.0409 29.893 31.4809 31.3329 33.2509 31.3329C35.0208 31.3329 36.4608 29.893 36.4608 28.123C36.4608 26.353 35.0207 24.913 33.2509 24.913Z" fill="#4C94B3"/>
<path d="M38.867 42.9197H27.6349C25.8942 42.9197 24.478 41.5143 24.478 39.7869V36.8422C24.478 35.374 24.8506 33.9209 25.5556 32.6399L27.9142 33.938C27.4275 34.8224 27.1703 35.8267 27.1703 36.8422V39.7869C27.1703 40.0215 27.3874 40.2274 27.6349 40.2274H38.8669C39.1099 40.2274 39.3075 40.0298 39.3075 39.7869V36.8422C39.3075 35.6955 38.9849 34.5798 38.3746 33.6155L40.6496 32.1758C41.5329 33.5714 41.9997 35.185 41.9997 36.8422V39.7869C41.9998 41.5143 40.5945 42.9197 38.867 42.9197Z" fill="#4C94B3"/>
<path d="M8.77283 34.0251C5.51834 34.0251 2.87061 31.3774 2.87061 28.1229C2.87061 24.8684 5.51834 22.2207 8.77283 22.2207C12.0273 22.2207 14.675 24.8684 14.675 28.1229C14.675 31.3774 12.0272 34.0251 8.77283 34.0251ZM8.77283 24.913C7.00285 24.913 5.56286 26.353 5.56286 28.123C5.56286 29.893 7.00285 31.3329 8.77283 31.3329C10.5428 31.3329 11.9828 29.893 11.9828 28.123C11.9828 26.353 10.5427 24.913 8.77283 24.913Z" fill="#4C94B3"/>
<path d="M14.3889 42.9197H3.15684C1.41612 42.9197 0 41.5143 0 39.7869V36.8422C0 35.374 0.372607 33.9209 1.07753 32.6399L3.43621 33.938C2.94945 34.8224 2.69225 35.8267 2.69225 36.8422V39.7869C2.69225 40.0215 2.90934 40.2274 3.15684 40.2274H14.3889C14.6318 40.2274 14.8295 40.0298 14.8295 39.7869V36.8422C14.8295 35.6955 14.5068 34.5798 13.8966 33.6155L16.1715 32.1758C17.0549 33.5714 17.5217 35.185 17.5217 36.8422V39.7869C17.5217 41.5143 16.1163 42.9197 14.3889 42.9197Z" fill="#4C94B3"/>
<path d="M32.6946 16.741L28.6815 13.7078C28.6086 13.6527 28.5114 13.6185 28.4275 13.6185H19.1629C17.4631 13.6185 16.0801 12.2414 16.0801 10.5487V4.0072C16.0801 2.30543 17.463 0.920898 19.1629 0.920898H31.738C33.4553 0.920898 34.8524 2.30543 34.8524 4.0072V15.6672C34.8524 17.224 33.2388 17.3436 32.6946 16.741ZM19.1629 3.61315C18.9439 3.61315 18.7723 3.78626 18.7723 4.0072V10.5487C18.7723 10.764 18.9402 10.9264 19.1629 10.9264H28.4275C29.0975 10.9264 29.7642 11.1514 30.3049 11.5602L32.1602 12.9624V4.0072C32.1602 3.7973 31.9629 3.61315 31.738 3.61315H19.1629Z" fill="#4C94B3"/>
<path d="M7.14697 19.9287V8.31467C7.14697 6.60213 8.54093 5.20898 10.2545 5.20898H13.8368V7.90123H10.2545C10.0371 7.90123 9.83922 8.09831 9.83922 8.31467V17.2274L11.6798 15.8392C12.2125 15.4366 12.8779 15.2142 13.5519 15.2142H22.78V17.9064H13.5519C13.4642 17.9064 13.3685 17.9376 13.3022 17.9878L9.30364 21.0033C9.06556 21.1829 7.32915 21.6213 7.14697 19.9287Z" fill="#4C94B3"/>
<path d="M21.5356 6.0127H29.397V8.70495H21.5356V6.0127Z" fill="#4C94B3"/>
</g>
<defs>
<clipPath id="clip0_402_1104">
<rect width="42" height="42" fill="white" transform="translate(0 0.920898)"/>
</clipPath>
</defs>
</svg>
