<svg width="42" height="42" viewBox="0 0 42 42" fill="none" xmlns="http://www.w3.org/2000/svg">
<g clip-path="url(#clip0_402_892)">
<path d="M40.9164 13.2174C39.4772 11.7781 37.1353 11.7782 35.6956 13.2178C35.2528 13.661 32.4255 16.4905 31.9937 16.9228V7.17166C31.9937 6.18565 31.6097 5.2587 30.9124 4.56151L27.4322 1.08117C26.735 0.383906 25.808 0 24.822 0H3.69287C1.65743 0 0.00146484 1.65596 0.00146484 3.69141V38.3086C0.00146484 40.344 1.65743 42 3.69287 42H28.3022C30.3377 42 31.9937 40.344 31.9937 38.3086V27.3682L40.9164 18.4379C42.359 16.9953 42.3594 14.6602 40.9164 13.2174ZM24.6109 2.46094C24.8434 2.46094 25.2914 2.42066 25.6921 2.8213L29.1724 6.30164C29.5628 6.69219 29.5328 7.12015 29.5328 7.38281H24.6109V2.46094ZM29.5327 38.3086C29.5327 38.9871 28.9808 39.5391 28.3022 39.5391H3.69287C3.01439 39.5391 2.4624 38.9871 2.4624 38.3086V3.69141C2.4624 3.01293 3.01439 2.46094 3.69287 2.46094H22.1499V8.61328C22.1499 9.29283 22.7008 9.84375 23.3804 9.84375H29.5327V19.3859C29.5327 19.3859 25.9025 23.0192 25.9023 23.0193L24.163 24.7587C24.028 24.8937 23.9261 25.0584 23.8657 25.2396L22.1255 30.4601C21.9781 30.9022 22.0932 31.3897 22.4228 31.7193C22.7528 32.0493 23.2405 32.1638 23.682 32.0166L28.9025 30.2764C29.0837 30.216 29.2484 30.1142 29.3834 29.9791L29.5327 29.8298V38.3086ZM26.7732 25.6288L28.5133 27.3689L27.8486 28.0336L25.2385 28.9036L26.1085 26.2934L26.7732 25.6288ZM30.2531 25.6284L28.513 23.8882C29.4396 22.9609 33.555 18.8419 34.4278 17.9684L36.168 19.7085L30.2531 25.6284ZM39.1759 16.6981L37.9074 17.9676L36.1673 16.2275L37.4362 14.9576C37.9162 14.4778 38.6967 14.4779 39.1764 14.9576C39.656 15.4375 39.6586 16.2154 39.1759 16.6981Z" fill="#4C94B3"/>
<path d="M23.3804 12.3047H6.15381C5.47426 12.3047 4.92334 12.8556 4.92334 13.5352C4.92334 14.2147 5.47426 14.7656 6.15381 14.7656H23.3804C24.0599 14.7656 24.6108 14.2147 24.6108 13.5352C24.6108 12.8556 24.0599 12.3047 23.3804 12.3047Z" fill="#4C94B3"/>
<path d="M18.4585 17.2266H6.15381C5.47426 17.2266 4.92334 17.7775 4.92334 18.457C4.92334 19.1366 5.47426 19.6875 6.15381 19.6875H18.4585C19.138 19.6875 19.689 19.1366 19.689 18.457C19.689 17.7775 19.138 17.2266 18.4585 17.2266Z" fill="#4C94B3"/>
<path d="M18.4585 22.1484H6.15381C5.47426 22.1484 4.92334 22.6994 4.92334 23.3789C4.92334 24.0585 5.47426 24.6094 6.15381 24.6094H18.4585C19.138 24.6094 19.689 24.0585 19.689 23.3789C19.689 22.6994 19.138 22.1484 18.4585 22.1484Z" fill="#4C94B3"/>
<path d="M18.4585 27.0703H6.15381C5.47426 27.0703 4.92334 27.6212 4.92334 28.3008C4.92334 28.9803 5.47426 29.5312 6.15381 29.5312H18.4585C19.138 29.5312 19.689 28.9803 19.689 28.3008C19.689 27.6212 19.138 27.0703 18.4585 27.0703Z" fill="#4C94B3"/>
<path d="M23.3804 34.6172H15.9976C15.318 34.6172 14.7671 35.1681 14.7671 35.8477C14.7671 36.5272 15.318 37.0781 15.9976 37.0781H23.3804C24.0599 37.0781 24.6108 36.5272 24.6108 35.8477C24.6108 35.1681 24.0599 34.6172 23.3804 34.6172Z" fill="#4C94B3"/>
</g>
<defs>
<clipPath id="clip0_402_892">
<rect width="42" height="42" fill="white"/>
</clipPath>
</defs>
</svg>
