<svg width="68" height="68" viewBox="0 0 68 68" fill="none" xmlns="http://www.w3.org/2000/svg">
<g clip-path="url(#clip0_402_222)">
<path d="M55.9141 20.0547H53.9219C47.3305 20.0547 41.9688 25.4165 41.9688 32.0078V38.1264L47.2682 35.0661L49.9375 39.6915V32.0078C49.9375 29.8114 51.7254 28.0234 53.9219 28.0234H55.9141V33.0039L68 24.0391L55.9141 15.0742V20.0547Z" fill="#4C94B3"/>
<path d="M34 0L25.0372 12.0859H30.0156L30.0171 32.0078H37.9844V12.0859H42.9629L34 0Z" fill="#4C94B3"/>
<path d="M12.0859 28.0234H14.0781C16.2746 28.0234 18.0625 29.8114 18.0625 32.0078V39.6915L20.7318 35.0661L26.0312 38.1264V32.0078C26.0312 25.4165 20.6695 20.0547 14.0781 20.0547H12.0859V15.0742L0 24.0391L12.0859 33.0039V28.0234Z" fill="#4C94B3"/>
<path d="M34 53.9219C35.1003 53.9219 35.9922 53.0299 35.9922 51.9297C35.9922 50.8294 35.1003 49.9375 34 49.9375C32.8997 49.9375 32.0078 50.8294 32.0078 51.9297C32.0078 53.0299 32.8997 53.9219 34 53.9219Z" fill="#4C94B3"/>
<path d="M45.8092 40.5097L41.7196 42.8715C40.5991 41.9181 39.3423 41.1906 37.9844 40.7081V35.9922H30.0156V40.7081C28.6558 41.1906 27.399 41.9181 26.2823 42.8715L22.1909 40.5097L18.2065 47.4123L22.2667 49.7566C22.1364 50.4648 22.0469 51.1846 22.0469 51.9297C22.0469 52.6748 22.1364 53.3966 22.2667 54.1028L18.2065 56.447L22.1909 63.3497L26.2802 60.9879C27.4008 61.9412 28.6576 62.6688 30.0156 63.1513V68H37.9844V63.1513C39.3443 62.6688 40.6011 61.9412 41.7177 60.9879L45.8092 63.3497L49.7935 56.447L45.7333 54.1028C45.8636 53.3946 45.9531 52.6748 45.9531 51.9297C45.9531 51.1846 45.8636 50.4628 45.7333 49.7566L49.7935 47.4123L45.8092 40.5097ZM34 57.9062C30.7044 57.9062 28.0235 55.2253 28.0235 51.9297C28.0235 48.6341 30.7044 45.9531 34 45.9531C37.2956 45.9531 39.9766 48.6341 39.9766 51.9297C39.9766 55.2253 37.2956 57.9062 34 57.9062Z" fill="#6BC067"/>
</g>
<defs>
<clipPath id="clip0_402_222">
<rect width="68" height="68" fill="white"/>
</clipPath>
</defs>
</svg>
