<svg width="42" height="43" viewBox="0 0 42 43" fill="none" xmlns="http://www.w3.org/2000/svg">
<g clip-path="url(#clip0_402_1071)">
<path d="M33.9586 42.6995C33.8182 42.8393 33.6054 42.9201 33.4039 42.9209C33.1172 42.922 32.8933 42.7688 32.8944 42.5107C32.8948 42.4486 32.9104 42.3799 32.9447 42.3049L35.1494 36.1943H31.8536C30.5843 36.1943 29.7825 34.8483 30.4001 33.7471L34.1804 27.0068H40.0034L37.0013 31.8467H40.8008C41.8327 31.8467 42.3756 33.0619 41.7032 33.8392L33.9586 42.6995Z" fill="#4C94B3"/>
<path d="M20.3438 2.56152H26.9062M23.543 7.56543V2.56152M1.64062 30.5342H10.582M1.64062 23.9717H13.043M1.64062 37.0967H8.12109M35.9297 7.97559L34.5352 9.74836M40.3594 22.4951C39.4028 14.0928 32.1602 7.56543 23.502 7.56543C16.5671 7.56543 10.6103 11.753 8.02225 17.7373M14.5605 38.8193C17.1349 40.4126 20.252 41.2803 23.502 41.2803C25.3868 41.2803 27.1902 41.0165 28.875 40.46M26.0931 26.5868C27.2961 25.2504 30.1055 16.3428 30.1055 16.3428C30.1055 16.3428 22.466 20.8852 21.263 22.2216C20.06 23.5581 20.1661 25.6187 21.4998 26.8242C22.8336 28.0296 24.8901 27.9234 26.0931 26.5868Z" stroke="#4C94B3" stroke-width="3" stroke-miterlimit="10" stroke-linecap="round" stroke-linejoin="round"/>
</g>
<defs>
<clipPath id="clip0_402_1071">
<rect width="42" height="42" fill="white" transform="translate(0 0.920898)"/>
</clipPath>
</defs>
</svg>
