<svg width="42" height="43" viewBox="0 0 42 43" fill="none" xmlns="http://www.w3.org/2000/svg">
<g clip-path="url(#clip0_402_1093)">
<path d="M39.3972 8.74111H24.9533C24.9334 8.74111 24.9158 8.73054 24.9074 8.71356L23.4177 5.69185C22.9973 4.83661 22.1097 4.28418 21.1561 4.28418H12.4242C11.0342 4.28418 9.90337 5.41532 9.90337 6.80568V9.2772H7.43089C6.04116 9.2772 4.91035 10.408 4.91035 11.7981V14.2696H2.43883C1.04878 14.2696 -0.0820312 15.4004 -0.0820312 16.7904V37.1893C-0.0820312 38.5794 1.04878 39.7102 2.43883 39.7102H29.4121C30.8022 39.7102 31.933 38.5794 31.933 37.1893V34.7175H34.4048C35.7949 34.7175 36.9257 33.5867 36.9257 32.197V29.7255H39.3972C40.7872 29.7255 41.9181 28.5946 41.9181 27.2046V11.2626C41.9181 9.87225 40.7872 8.74111 39.3972 8.74111ZM29.4121 37.2397H2.43883C2.41128 37.2397 2.38852 37.2172 2.38852 37.1893V16.7904C2.38852 16.7626 2.41128 16.7401 2.43883 16.7401H11.1713C11.1797 16.7401 11.1877 16.743 11.1947 16.7469C11.1957 16.7475 11.197 16.7472 11.1979 16.7478C11.2008 16.7497 11.2024 16.7533 11.205 16.7555C11.2091 16.7597 11.214 16.7632 11.2165 16.7683L12.7069 19.791C13.1346 20.6581 14.0011 21.1971 14.9678 21.1971H29.4121C29.4188 21.1971 29.4256 21.1984 29.4317 21.2009C29.4496 21.2086 29.4621 21.2265 29.4621 21.2474C29.4621 29.9594 29.4624 37.1099 29.4624 37.1893C29.4624 37.2172 29.44 37.2397 29.4121 37.2397ZM34.4551 32.197C34.4551 32.2245 34.4327 32.247 34.4051 32.247H31.933V21.2474C31.933 19.857 30.8018 18.7262 29.4118 18.7262H14.9678C14.9493 18.7262 14.9313 18.715 14.923 18.698L13.4323 15.6753C13.0049 14.8092 12.1387 14.2696 11.1717 14.2696H7.3809V11.7981C7.3809 11.7702 7.40333 11.7478 7.43089 11.7478H16.1637C16.1829 11.7478 16.2002 11.7583 16.2089 11.7763L17.6996 14.7989C18.1277 15.666 18.9938 16.2047 19.9602 16.2047H34.4051C34.4327 16.2047 34.4551 16.2271 34.4551 16.255V32.197ZM39.4475 27.2046C39.4475 27.2325 39.4251 27.2549 39.3972 27.2549H36.9257V16.255C36.9257 14.8649 35.7952 13.7341 34.4051 13.7341H19.9602C19.9413 13.7341 19.9237 13.7229 19.915 13.7056L18.4247 10.6839C17.9976 9.81617 17.1311 9.2772 16.1637 9.2772H12.3739V6.80568C12.3739 6.77749 12.3964 6.75473 12.4239 6.75473H21.1558C21.1747 6.75473 21.1923 6.76531 21.201 6.78293L22.6916 9.80656C23.1194 10.673 23.9859 11.2117 24.9533 11.2117H39.3972C39.4247 11.2117 39.4472 11.2344 39.4472 11.2629L39.4475 27.2046Z" fill="#4C94B3"/>
<path d="M21.8696 31.8682C21.1873 31.8682 20.6343 32.4212 20.6343 33.1034V33.8177C20.6343 34.4999 21.1873 35.053 21.8696 35.053C22.5518 35.053 23.1048 34.4999 23.1048 33.8177V33.1034C23.1048 32.4212 22.5518 31.8682 21.8696 31.8682Z" fill="#4C94B3"/>
<path d="M25.4697 31.8682C24.7874 31.8682 24.2344 32.4212 24.2344 33.1034V33.8177C24.2344 34.4999 24.7874 35.053 25.4697 35.053C26.1519 35.053 26.7049 34.4999 26.7049 33.8177V33.1034C26.7049 32.4212 26.1519 31.8682 25.4697 31.8682Z" fill="#4C94B3"/>
</g>
<defs>
<clipPath id="clip0_402_1093">
<rect width="42" height="42" fill="white" transform="translate(0 0.920898)"/>
</clipPath>
</defs>
</svg>
