<svg width="42" height="43" viewBox="0 0 42 43" fill="none" xmlns="http://www.w3.org/2000/svg">
<g clip-path="url(#clip0_402_1062)">
<path d="M41.6396 29.7462L38.3865 26.493V15.3342L40.5103 14.5685C40.9978 14.3926 41.323 13.9302 41.3234 13.4119C41.3238 12.8936 40.9993 12.4306 40.5119 12.2542L21.0806 5.21707C20.81 5.11905 20.5133 5.11905 20.2427 5.21707L0.811465 12.2542C0.325969 12.43 0.00197614 12.8902 7.57777e-06 13.4065C-0.00179694 13.9229 0.318832 14.3854 0.802935 14.5648L7.97416 17.2213V25.3298C7.97416 25.5814 8.05126 25.8271 8.19521 26.0335C8.27436 26.147 9.02414 27.1709 10.9438 28.1371C13.369 29.3579 16.5499 29.977 20.3979 29.977C24.2432 29.977 27.4401 29.3593 29.8999 28.1408C31.8385 27.1806 32.6133 26.1673 32.6953 26.055C32.8488 25.8445 32.9316 25.5906 32.9316 25.3299V17.3007L35.9258 16.2212V26.493L32.6726 29.7462C32.4419 29.9769 32.3122 30.2898 32.3122 30.6161C32.3122 30.9424 32.4418 31.2554 32.6726 31.486L35.9258 34.7392V37.4687C35.9258 38.1482 36.4767 38.699 37.1562 38.699C37.8357 38.699 38.3865 38.1482 38.3865 37.4687V34.7392L41.6397 31.486C42.1202 31.0057 42.1202 30.2266 41.6396 29.7462ZM20.6617 7.68245L36.4726 13.4084L20.4037 19.2016L4.80748 13.4241L20.6617 7.68245ZM30.4708 24.8394C26.2647 28.6242 13.7662 28.1902 10.4349 24.8517V18.1329L19.9705 21.6653C20.1218 21.6893 20.2647 21.8198 20.8152 21.6691L30.4709 18.188L30.4708 24.8394ZM37.1561 32.4897L35.2825 30.6161L37.1561 28.7424L39.0297 30.6161L37.1561 32.4897Z" fill="#4C94B3"/>
</g>
<defs>
<clipPath id="clip0_402_1062">
<rect width="42" height="42" fill="white" transform="translate(0 0.920898)"/>
</clipPath>
</defs>
</svg>
