<svg width="42" height="43" viewBox="0 0 42 43" fill="none" xmlns="http://www.w3.org/2000/svg">
<g clip-path="url(#clip0_402_1249)">
<path d="M6.99541 34.521C5.8815 34.521 4.81321 34.0785 4.02556 33.2908C3.23791 32.5032 2.79541 31.4349 2.79541 30.321V21.921C2.79541 21.5485 2.94337 21.1913 3.20674 20.9279C3.47011 20.6646 3.82732 20.5166 4.19979 20.5166H6.99541C8.10932 20.5166 9.17761 20.9591 9.96526 21.7468C10.7529 22.5344 11.1954 23.6027 11.1954 24.7166V30.321C11.1954 31.4349 10.7529 32.5032 9.96526 33.2908C9.17761 34.0785 8.10932 34.521 6.99541 34.521ZM5.59104 23.3122V30.321C5.62473 30.6683 5.78656 30.9907 6.04497 31.2253C6.30338 31.4598 6.63986 31.5897 6.98885 31.5897C7.33783 31.5897 7.67432 31.4598 7.93273 31.2253C8.19114 30.9907 8.35296 30.6683 8.38666 30.321V24.7166C8.38666 24.3441 8.2387 23.9869 7.97533 23.7236C7.71196 23.4602 7.35475 23.3122 6.98229 23.3122H5.59104Z" fill="#4C94B3"/>
<path d="M4.4233 17.7081H4.20018C3.83303 17.647 3.50516 17.4427 3.28859 17.14C3.07202 16.8373 2.98447 16.461 3.04518 16.0938C3.60186 12.7997 5.05424 9.72239 7.24327 7.19876C9.4323 4.67513 12.2736 2.80253 15.4559 1.78603C18.6382 0.769524 22.0389 0.648317 25.2855 1.43568C28.5322 2.22305 31.4995 3.88862 33.8627 6.25C36.5393 8.91541 38.3114 12.354 38.9289 16.0806C38.9807 16.2701 38.9922 16.4684 38.9625 16.6626C38.9329 16.8567 38.8629 17.0426 38.757 17.208C38.6511 17.3734 38.5116 17.5148 38.3477 17.623C38.1837 17.7312 37.9989 17.8038 37.8051 17.8361C37.6113 17.8684 37.4129 17.8596 37.2228 17.8105C37.0326 17.7613 36.8548 17.6728 36.701 17.5507C36.5471 17.4285 36.4206 17.2755 36.3296 17.1014C36.2386 16.9273 36.1852 16.736 36.1727 16.54C35.5648 12.9541 33.707 9.69925 30.9286 7.35222C28.1502 5.00519 24.6307 3.71757 20.9936 3.71757C17.3566 3.71757 13.837 5.00519 11.0586 7.35222C8.2802 9.69925 6.42244 12.9541 5.81455 16.54C5.75859 16.8679 5.58802 17.1654 5.33324 17.3793C5.07845 17.5932 4.75599 17.7098 4.4233 17.7081Z" fill="#4C94B3"/>
<path d="M15.2252 9.32112C14.9195 9.31027 14.6258 9.19997 14.3886 9.00697C14.1514 8.81397 13.9837 8.54883 13.9109 8.25182C13.8382 7.9548 13.8643 7.64216 13.9855 7.36137C14.1066 7.08058 14.316 6.84701 14.582 6.69612C16.57 5.69142 18.7662 5.16797 20.9936 5.16797C23.221 5.16797 25.4172 5.69142 27.4052 6.69612C27.5758 6.77777 27.7283 6.89306 27.8533 7.03509C27.9783 7.17711 28.0733 7.34293 28.1327 7.5226C28.192 7.70226 28.2144 7.89207 28.1986 8.08061C28.1827 8.26916 28.129 8.45255 28.0405 8.6198C27.952 8.78704 27.8306 8.93468 27.6836 9.05385C27.5367 9.17301 27.3671 9.26126 27.1852 9.31327C27.0033 9.36529 26.8127 9.38001 26.625 9.35655C26.4372 9.33309 26.2562 9.27193 26.0927 9.17674C24.5065 8.36363 22.7497 7.93956 20.9673 7.93956C19.185 7.93956 17.4281 8.36363 15.842 9.17674C15.6502 9.27167 15.4391 9.32107 15.2252 9.32112Z" fill="#4C94B3"/>
<path d="M37.8131 20.5166H35.0043C33.8904 20.5166 32.8221 20.9591 32.0345 21.7468C31.2468 22.5344 30.8043 23.6027 30.8043 24.7166V30.321C30.8043 31.4349 31.2468 32.5032 32.0345 33.2908C32.8221 34.0785 33.8904 34.521 35.0043 34.521C35.4143 34.5154 35.8213 34.4491 36.2118 34.3241C35.9573 35.1894 35.4302 35.9495 34.7089 36.4911C33.9876 37.0326 33.1107 37.3268 32.2087 37.3297H24.9374C24.6076 36.3953 23.958 35.6075 23.1035 35.1057C22.2489 34.604 21.2445 34.4205 20.2678 34.5878C19.291 34.7551 18.4049 35.2624 17.7661 36.02C17.1272 36.7775 16.7769 37.7366 16.7769 38.7275C16.7769 39.7185 17.1272 40.6775 17.7661 41.4351C18.4049 42.1927 19.291 42.6999 20.2678 42.8672C21.2445 43.0346 22.2489 42.8511 23.1035 42.3493C23.958 41.8476 24.6076 41.0598 24.9374 40.1254H32.2087C34.063 40.1219 35.8403 39.3837 37.1515 38.0725C38.4627 36.7614 39.2008 34.984 39.2043 33.1297V21.921C39.2043 21.5508 39.0582 21.1955 38.7976 20.9325C38.5371 20.6695 38.1832 20.5201 37.8131 20.5166ZM20.9999 40.1254C20.7222 40.1254 20.4506 40.043 20.2197 39.8887C19.9887 39.7344 19.8087 39.515 19.7025 39.2584C19.5962 39.0018 19.5683 38.7194 19.6225 38.447C19.6767 38.1746 19.8105 37.9243 20.0069 37.7279C20.2033 37.5315 20.4535 37.3978 20.7259 37.3436C20.9984 37.2894 21.2807 37.3172 21.5374 37.4235C21.794 37.5298 22.0133 37.7098 22.1676 37.9407C22.3219 38.1717 22.4043 38.4432 22.4043 38.721C22.4043 39.0934 22.2563 39.4506 21.993 39.714C21.7296 39.9774 21.3724 40.1254 20.9999 40.1254ZM36.4087 30.321C36.375 30.6683 36.2132 30.9907 35.9548 31.2253C35.6963 31.4598 35.3599 31.5897 35.0109 31.5897C34.6619 31.5897 34.3254 31.4598 34.067 31.2253C33.8086 30.9907 33.6468 30.6683 33.6131 30.321V24.7166C33.6131 24.3441 33.761 23.9869 34.0244 23.7236C34.2878 23.4602 34.645 23.3122 35.0174 23.3122H36.4218L36.4087 30.321Z" fill="#4C94B3"/>
</g>
<defs>
<clipPath id="clip0_402_1249">
<rect width="42" height="42" fill="white" transform="translate(0 0.920898)"/>
</clipPath>
</defs>
</svg>
