<svg width="42" height="43" viewBox="0 0 42 43" fill="none" xmlns="http://www.w3.org/2000/svg">
<g clip-path="url(#clip0_402_999)">
<path d="M6.17627 7.11816H8.64686V9.58875H6.17627V7.11816Z" fill="#4C94B3"/>
<path d="M6.17627 34.2939H8.64686V36.7645H6.17627V34.2939Z" fill="#4C94B3"/>
<path d="M42 28.1179V15.7649H38.2171C37.6073 10.8967 33.4426 7.11788 28.4118 7.11788H14.72C14.1301 3.61697 11.0778 0.941406 7.41177 0.941406C3.32492 0.941406 0 4.26632 0 8.35317C0 12.44 3.32492 15.7649 7.41177 15.7649C11.0778 15.7649 14.1301 13.0894 14.72 9.58847H28.4118C32.0778 9.58847 35.1301 12.264 35.72 15.7649H29.6471V20.7061H14.8235C10.4434 20.7061 6.81396 23.9798 6.25232 28.2088C2.71427 28.7671 0 31.8372 0 35.5296C0 39.6165 3.32492 42.9414 7.41177 42.9414C11.0778 42.9414 14.1301 40.2658 14.72 36.7649H27.9001L26.303 38.3621L28.0499 40.109L32.6293 35.5296L28.05 30.9503L26.303 32.6973L27.9001 34.2943H14.72C14.2037 31.2296 11.8001 28.7976 8.74967 28.2392C9.27582 25.3636 11.7983 23.1767 14.8235 23.1767H29.6471V28.1179H42ZM7.41177 13.2943C4.6872 13.2943 2.47059 11.0777 2.47059 8.35317C2.47059 5.62861 4.6872 3.41199 7.41177 3.41199C10.1363 3.41199 12.3529 5.62861 12.3529 8.35317C12.3529 11.0777 10.1363 13.2943 7.41177 13.2943ZM12.3529 35.5296C12.3529 38.2542 10.1363 40.4708 7.41177 40.4708C4.6872 40.4708 2.47059 38.2542 2.47059 35.5296C2.47059 32.8051 4.6872 30.5885 7.41177 30.5885C10.1363 30.5885 12.3529 32.8051 12.3529 35.5296ZM32.1176 18.2355H39.5294V25.6473H32.1176V18.2355Z" fill="#4C94B3"/>
<path d="M34.5884 20.7061H37.059V23.1766H34.5884V20.7061Z" fill="#4C94B3"/>
</g>
<defs>
<clipPath id="clip0_402_999">
<rect width="42" height="42" fill="white" transform="translate(0 0.941406)"/>
</clipPath>
</defs>
</svg>
