<svg width="42" height="43" viewBox="0 0 42 43" fill="none" xmlns="http://www.w3.org/2000/svg">
<g clip-path="url(#clip0_402_1189)">
<path d="M16.0649 33.4376C15.3866 33.4376 14.8345 32.8855 14.8345 32.2072C14.8345 31.5275 14.2836 30.9767 13.604 30.9767C12.9244 30.9767 12.3735 31.5275 12.3735 32.2072C12.3735 33.8161 13.4085 35.1869 14.8476 35.6913V36.7686C14.8476 37.4482 15.3984 37.999 16.0781 37.999C16.7577 37.999 17.3085 37.4482 17.3085 36.7686V35.6823C18.7338 35.1709 19.7563 33.8065 19.7563 32.2072C19.7563 30.1718 18.1003 28.5158 16.0649 28.5158C15.3866 28.5158 14.8345 27.9637 14.8345 27.2853C14.8345 26.6066 15.3866 26.0548 16.0649 26.0548C16.7433 26.0548 17.2954 26.6066 17.2954 27.2853C17.2954 27.9649 17.8462 28.5158 18.5259 28.5158C19.2055 28.5158 19.7563 27.9649 19.7563 27.2853C19.7563 25.686 18.7338 24.3216 17.3085 23.8099V22.0029C17.3085 21.3233 16.7577 20.7725 16.0781 20.7725C15.3984 20.7725 14.8476 21.3233 14.8476 22.0029V23.8009C13.4085 24.3053 12.3735 25.6761 12.3735 27.2853C12.3735 29.3207 14.0295 30.9767 16.0649 30.9767C16.7433 30.9767 17.2954 31.5285 17.2954 32.2072C17.2954 32.8855 16.7433 33.4376 16.0649 33.4376Z" fill="#4C94B3"/>
<path d="M5.01544 40.9115C7.57603 42.2823 11.0915 42.9209 16.0781 42.9209C20.1355 42.9209 23.1892 42.5005 25.5617 41.6065C26.2394 42.4095 27.2523 42.9209 28.3828 42.9209H38.3086C40.344 42.9209 42 41.2649 42 39.2295C42 38.2849 41.6427 37.4222 41.057 36.7686C41.643 36.1149 42 35.2523 42 34.3076C42 33.363 41.6427 32.5004 41.057 31.8467C41.643 31.193 42 30.3304 42 29.3857C42 28.4411 41.6427 27.5785 41.057 26.9248C41.643 26.2711 42 25.4085 42 24.4639C42 22.4285 40.344 20.7725 38.3086 20.7725H28.3828C28.263 20.7725 28.1444 20.7785 28.0275 20.7901C26.7925 19.2943 25.3454 18.0401 23.7509 17.0782C24.3351 16.4251 24.6914 15.5635 24.6914 14.6201C24.6914 13.1496 23.8269 11.8775 22.5794 11.2844L24.6308 4.99394C24.7529 4.61903 24.6882 4.20856 24.4568 3.88972C24.2252 3.57057 23.8551 3.38184 23.4609 3.38184H19.558C19.0498 1.94949 17.6822 0.920898 16.0781 0.920898C14.4737 0.920898 13.1055 1.94949 12.5976 3.38184H8.69531C8.30118 3.38184 7.93108 3.57057 7.6994 3.88972C7.46805 4.20856 7.40332 4.61903 7.52541 4.99394L9.57683 11.2844C8.32938 11.8775 7.46484 13.1496 7.46484 14.6201C7.46484 15.5641 7.82149 16.4264 8.4066 17.0798C3.46967 20.0595 0 25.7187 0 31.8467C0 36.0799 1.68741 39.1295 5.01544 40.9115ZM39.5391 29.3857C39.5391 30.0641 38.987 30.6162 38.3086 30.6162H28.3828C27.7045 30.6162 27.1523 30.0641 27.1523 29.3857C27.1523 28.7074 27.7045 28.1553 28.3828 28.1553H38.3086C38.987 28.1553 39.5391 28.7074 39.5391 29.3857ZM39.5391 34.3076C39.5391 34.986 38.987 35.5381 38.3086 35.5381H28.3828C27.7045 35.5381 27.1523 34.986 27.1523 34.3076C27.1523 33.6293 27.7045 33.0771 28.3828 33.0771H38.3086C38.987 33.0771 39.5391 33.6293 39.5391 34.3076ZM38.3086 40.46H28.3828C27.7045 40.46 27.1523 39.9079 27.1523 39.2295C27.1523 38.5511 27.7045 37.999 28.3828 37.999H38.3086C38.987 37.999 39.5391 38.5511 39.5391 39.2295C39.5391 39.9079 38.987 40.46 38.3086 40.46ZM39.5391 24.4639C39.5391 25.1422 38.987 25.6943 38.3086 25.6943H28.3828C27.7045 25.6943 27.1523 25.1422 27.1523 24.4639C27.1523 23.7855 27.7045 23.2334 28.3828 23.2334H38.3086C38.987 23.2334 39.5391 23.7855 39.5391 24.4639ZM20.9648 15.8506H11.1918C11.1809 15.8503 11.17 15.8506 11.1591 15.8506H11.1562C10.4779 15.8506 9.92578 15.2985 9.92578 14.6201C9.92578 13.943 10.4756 13.3919 11.1524 13.39H11.1559C11.1588 13.39 11.1617 13.3896 11.1646 13.3896H20.9913C20.9942 13.3896 20.9974 13.39 21.0003 13.39H21.0038C21.6806 13.3919 22.2305 13.943 22.2305 14.6201C22.2305 15.2985 21.6784 15.8506 21 15.8506H20.9962C20.9859 15.8506 20.9753 15.8503 20.9648 15.8506ZM13.6172 5.84277C14.2968 5.84277 14.8477 5.29195 14.8477 4.6123C14.8477 3.93394 15.3998 3.38184 16.0781 3.38184C16.7565 3.38184 17.3086 3.93394 17.3086 4.6123V7.07324C17.3086 7.75288 17.8594 8.30371 18.5391 8.30371C19.2187 8.30371 19.7695 7.75288 19.7695 7.07324V5.84277H21.7655L20.1069 10.9287H12.0493L10.3907 5.84277H13.6172ZM11.3963 18.3115H20.7552C22.6185 19.0899 24.3168 20.3155 25.7331 21.8975C25.0891 22.5624 24.6914 23.4673 24.6914 24.4639C24.6914 25.4085 25.0487 26.2711 25.6344 26.9248C25.0487 27.5785 24.6914 28.4411 24.6914 29.3857C24.6914 30.3304 25.0487 31.193 25.6344 31.8467C25.0487 32.5004 24.6914 33.363 24.6914 34.3076C24.6914 35.2523 25.0487 36.1149 25.6344 36.7686C25.0487 37.4222 24.6914 38.2849 24.6914 39.2295C24.6914 39.2548 24.6927 39.2798 24.6933 39.3048C22.6118 40.0908 19.8394 40.46 16.0781 40.46C11.5126 40.46 8.36623 39.9139 6.17702 38.7418C3.64174 37.3844 2.46094 35.1936 2.46094 31.8467C2.46094 26.043 6.12415 20.5123 11.3963 18.3115Z" fill="#4C94B3"/>
</g>
<defs>
<clipPath id="clip0_402_1189">
<rect width="42" height="42" fill="white" transform="translate(0 0.920898)"/>
</clipPath>
</defs>
</svg>
