<svg width="42" height="43" viewBox="0 0 42 43" fill="none" xmlns="http://www.w3.org/2000/svg">
<path d="M16.4134 11.8054C15.9089 11.2927 15.0915 11.2927 14.5869 11.8054L10.7119 15.7429C10.2074 16.2556 10.2074 17.0862 10.7119 17.5989L14.5869 21.5364C14.8392 21.7927 15.1697 21.9209 15.5002 21.9209C15.8306 21.9209 16.1611 21.7927 16.4134 21.5364C16.918 21.0237 16.918 20.1931 16.4134 19.6804L13.4517 16.6709L16.4134 13.6614C16.918 13.1487 16.918 12.3181 16.4134 11.8054Z" fill="#4C94B3"/>
<path d="M26.7469 11.8054C26.2424 11.2927 25.425 11.2927 24.9204 11.8054C24.4159 12.3181 24.4159 13.1487 24.9204 13.6614L27.8822 16.6709L24.9204 19.6804C24.4159 20.1931 24.4159 21.0237 24.9204 21.5364C25.1727 21.7927 25.5032 21.9209 25.8337 21.9209C26.1641 21.9209 26.4946 21.7927 26.7469 21.5364L30.6219 17.5989C31.1265 17.0862 31.1265 16.2556 30.6219 15.7429L26.7469 11.8054Z" fill="#4C94B3"/>
<path d="M22.3672 11.4879C21.6892 11.2553 20.9589 11.6308 20.7331 12.3178L18.1497 20.1928C17.9239 20.8805 18.2898 21.6239 18.9665 21.8533C19.1021 21.8995 19.2402 21.9213 19.3752 21.9213C19.9163 21.9213 20.4202 21.5733 20.6006 21.0234L23.184 13.1484C23.4097 12.4608 23.0439 11.7174 22.3672 11.4879Z" fill="#4C94B3"/>
<path d="M33.5835 3.5459H7.75016C4.90131 3.5459 2.5835 5.90109 2.5835 8.7959V24.5459C2.5835 27.4407 4.90131 29.7959 7.75016 29.7959H16.7918V32.4209H15.007C14.0218 32.4209 13.1363 32.9772 12.6961 33.8718L10.4697 38.3964C10.2698 38.8033 10.2912 39.2865 10.5265 39.6736C10.7617 40.0601 11.1774 40.2959 11.6252 40.2959H29.7085C30.1563 40.2959 30.5719 40.0601 30.8072 39.6736C31.0424 39.2865 31.0639 38.8033 30.8639 38.3964L28.6376 33.8718C28.1973 32.9772 27.3118 32.4209 26.3267 32.4209H24.5418V29.7959H33.5835C36.4324 29.7959 38.7502 27.4407 38.7502 24.5459V8.7959C38.7502 5.90109 36.4324 3.5459 33.5835 3.5459ZM23.2502 36.3584C23.9635 36.3584 24.5418 35.7707 24.5418 35.0459H26.3267L27.6184 37.6709H13.7153L15.007 35.0459H16.7918C16.7918 35.7707 17.3702 36.3584 18.0835 36.3584C18.7968 36.3584 19.3752 35.7707 19.3752 35.0459V29.7959H21.9585V35.0459C21.9585 35.7707 22.5368 36.3584 23.2502 36.3584ZM36.1668 24.5459C36.1668 25.9936 35.0082 27.1709 33.5835 27.1709H7.75016C6.32542 27.1709 5.16683 25.9936 5.16683 24.5459V8.7959C5.16683 7.34818 6.32542 6.1709 7.75016 6.1709H33.5835C35.0082 6.1709 36.1668 7.34818 36.1668 8.7959V24.5459Z" fill="#4C94B3"/>
</svg>
