<svg width="42" height="43" viewBox="0 0 42 43" fill="none" xmlns="http://www.w3.org/2000/svg">
<path d="M10.3333 10.1084C10.3333 9.7603 10.1972 9.42646 9.95501 9.18032C9.71278 8.93418 9.38424 8.7959 9.04167 8.7959C8.7862 8.7959 8.53647 8.87288 8.32406 9.01709C8.11164 9.16131 7.94609 9.3663 7.84832 9.60613C7.75056 9.84595 7.72498 10.1099 7.77482 10.3645C7.82466 10.6191 7.94768 10.8529 8.12832 11.0365C8.30896 11.22 8.53912 11.345 8.78968 11.3957C9.04023 11.4463 9.29995 11.4203 9.53597 11.321C9.77199 11.2217 9.97372 11.0534 10.1156 10.8376C10.2576 10.6217 10.3333 10.368 10.3333 10.1084Z" fill="#4C94B3"/>
<path d="M15.5003 10.1084C15.5003 9.7603 15.3642 9.42646 15.122 9.18032C14.8798 8.93418 14.5512 8.7959 14.2087 8.7959C13.9532 8.7959 13.7035 8.87288 13.491 9.01709C13.2786 9.16131 13.1131 9.3663 13.0153 9.60613C12.9176 9.84595 12.892 10.1099 12.9418 10.3645C12.9917 10.6191 13.1147 10.8529 13.2953 11.0365C13.476 11.22 13.7061 11.345 13.9567 11.3957C14.2072 11.4463 14.4669 11.4203 14.703 11.321C14.939 11.2217 15.1407 11.0534 15.2826 10.8376C15.4246 10.6217 15.5003 10.368 15.5003 10.1084Z" fill="#4C94B3"/>
<path d="M37.4585 3.5459H3.87516C3.53259 3.5459 3.20405 3.68418 2.96182 3.93032C2.71958 4.17646 2.5835 4.5103 2.5835 4.8584V15.3584C2.5835 15.7065 2.71958 16.0403 2.96182 16.2865C3.20405 16.5326 3.53259 16.6709 3.87516 16.6709C4.21773 16.6709 4.54627 16.5326 4.78851 16.2865C5.03074 16.0403 5.16683 15.7065 5.16683 15.3584V6.1709H36.1668V8.7959H19.3752C19.0326 8.7959 18.7041 8.93418 18.4618 9.18032C18.2196 9.42646 18.0835 9.7603 18.0835 10.1084C18.0835 10.4565 18.2196 10.7903 18.4618 11.0365C18.7041 11.2826 19.0326 11.4209 19.3752 11.4209H36.1668V23.2334C36.1668 23.5815 36.3029 23.9153 36.5451 24.1615C36.7874 24.4076 37.1159 24.5459 37.4585 24.5459C37.8011 24.5459 38.1296 24.4076 38.3718 24.1615C38.6141 23.9153 38.7502 23.5815 38.7502 23.2334V4.8584C38.7502 4.5103 38.6141 4.17646 38.3718 3.93032C38.1296 3.68418 37.8011 3.5459 37.4585 3.5459Z" fill="#4C94B3"/>
<path d="M37.4585 27.1709H24.5418C24.2779 27.17 24.0201 27.2513 23.803 27.4039C23.5859 27.5564 23.42 27.7728 23.3277 28.024L21.2222 33.7334H20.6668V32.4209C20.6619 31.0783 20.2519 29.7695 19.492 28.6711C18.7321 27.5727 17.6589 26.7376 16.4172 26.2784C17.2549 25.3363 17.8056 24.1676 18.0027 22.9138C18.1997 21.6601 18.0346 20.3751 17.5274 19.2148C17.0201 18.0545 16.1926 17.0686 15.1449 16.3767C14.0973 15.6847 12.8747 15.3164 11.6252 15.3164C10.3757 15.3164 9.15301 15.6847 8.10539 16.3767C7.05777 17.0686 6.23018 18.0545 5.72294 19.2148C5.2157 20.3751 5.0506 21.6601 5.24764 22.9138C5.44469 24.1676 5.99542 25.3363 6.83308 26.2784C5.59142 26.7376 4.51825 27.5727 3.75835 28.6711C2.99845 29.7695 2.58839 31.0783 2.5835 32.4209V38.9834C2.5835 39.3315 2.71958 39.6653 2.96182 39.9115C3.20405 40.1576 3.53259 40.2959 3.87516 40.2959C4.21773 40.2959 4.54627 40.1576 4.78851 39.9115C5.03074 39.6653 5.16683 39.3315 5.16683 38.9834V32.4209C5.16683 31.3766 5.57509 30.3751 6.30179 29.6367C7.02849 28.8982 8.01412 28.4834 9.04183 28.4834H14.2085C15.2362 28.4834 16.2218 28.8982 16.9485 29.6367C17.6752 30.3751 18.0835 31.3766 18.0835 32.4209V33.7334H15.5002C14.815 33.7334 14.1579 34.01 13.6735 34.5023C13.189 34.9945 12.9168 35.6622 12.9168 36.3584C12.9168 37.4027 13.3251 38.4042 14.0518 39.1426C14.7785 39.8811 15.7641 40.2959 16.7918 40.2959H33.5835C33.8474 40.2968 34.1053 40.2155 34.3223 40.063C34.5394 39.9104 34.7053 39.694 34.7977 39.4428L38.6727 28.9428C38.7448 28.7438 38.7683 28.53 38.7413 28.3197C38.7143 28.1094 38.6376 27.9089 38.5177 27.7353C38.399 27.5614 38.2407 27.4193 38.0562 27.321C37.8718 27.2228 37.6667 27.1713 37.4585 27.1709ZM11.6252 17.9834C12.3916 17.9834 13.1408 18.2143 13.778 18.647C14.4152 19.0797 14.9119 19.6946 15.2052 20.4141C15.4985 21.1336 15.5752 21.9253 15.4257 22.6891C15.2762 23.4529 14.9071 24.1545 14.3652 24.7051C13.8233 25.2558 13.1328 25.6308 12.3811 25.7827C11.6295 25.9347 10.8503 25.8567 10.1423 25.5587C9.4342 25.2607 8.82901 24.756 8.40322 24.1085C7.97743 23.4609 7.75016 22.6997 7.75016 21.9209C7.75016 20.8766 8.15842 19.8751 8.88512 19.1367C9.61183 18.3982 10.5974 17.9834 11.6252 17.9834ZM15.5002 36.3584H20.2535L19.7756 37.6709H16.7918C16.4493 37.6709 16.1207 37.5326 15.8785 37.2865C15.6362 37.0403 15.5002 36.7065 15.5002 36.3584ZM32.6922 37.6709H22.5268L25.4331 29.7959H35.5985L32.6922 37.6709Z" fill="#4C94B3"/>
<path d="M9.04167 31.1084C8.6991 31.1084 8.37056 31.2467 8.12832 31.4928C7.88609 31.739 7.75 32.0728 7.75 32.4209V38.9834C7.75 39.3315 7.88609 39.6653 8.12832 39.9115C8.37056 40.1576 8.6991 40.2959 9.04167 40.2959C9.38424 40.2959 9.71278 40.1576 9.95501 39.9115C10.1972 39.6653 10.3333 39.3315 10.3333 38.9834V32.4209C10.3333 32.0728 10.1972 31.739 9.95501 31.4928C9.71278 31.2467 9.38424 31.1084 9.04167 31.1084Z" fill="#4C94B3"/>
<path d="M28.4167 14.0459C28.0741 14.0459 27.7456 14.1842 27.5033 14.4303C27.2611 14.6765 27.125 15.0103 27.125 15.3584C27.125 15.7065 27.2611 16.0403 27.5033 16.2865C27.7456 16.5326 28.0741 16.6709 28.4167 16.6709V17.9834C28.4188 18.953 28.773 19.8877 29.4113 20.6084C28.773 21.3291 28.4188 22.2638 28.4167 23.2334C28.4167 23.5815 28.5528 23.9153 28.795 24.1615C29.0372 24.4076 29.3658 24.5459 29.7083 24.5459C30.0509 24.5459 30.3794 24.4076 30.6217 24.1615C30.8639 23.9153 31 23.5815 31 23.2334C31 22.8853 31.1361 22.5515 31.3783 22.3053C31.6206 22.0592 31.9491 21.9209 32.2917 21.9209C32.6342 21.9209 32.9628 21.7826 33.205 21.5365C33.4472 21.2903 33.5833 20.9565 33.5833 20.6084C33.5833 20.2603 33.4472 19.9265 33.205 19.6803C32.9628 19.4342 32.6342 19.2959 32.2917 19.2959C31.9491 19.2959 31.6206 19.1576 31.3783 18.9115C31.1361 18.6653 31 18.3315 31 17.9834V16.6709C31 15.9747 30.7278 15.307 30.2434 14.8147C29.7589 14.3225 29.1018 14.0459 28.4167 14.0459Z" fill="#4C94B3"/>
<path d="M23.25 15.3584H20.6667C20.3241 15.3584 19.9956 15.4967 19.7533 15.7428C19.5111 15.989 19.375 16.3228 19.375 16.6709C19.375 17.019 19.5111 17.3528 19.7533 17.599C19.9956 17.8451 20.3241 17.9834 20.6667 17.9834H23.25C23.5926 17.9834 23.9211 17.8451 24.1633 17.599C24.4056 17.3528 24.5417 17.019 24.5417 16.6709C24.5417 16.3228 24.4056 15.989 24.1633 15.7428C23.9211 15.4967 23.5926 15.3584 23.25 15.3584Z" fill="#4C94B3"/>
<path d="M23.2503 20.6084H21.9587C21.6161 20.6084 21.2875 20.7467 21.0453 20.9928C20.8031 21.239 20.667 21.5728 20.667 21.9209C20.667 22.269 20.8031 22.6028 21.0453 22.849C21.2875 23.0951 21.6161 23.2334 21.9587 23.2334C21.9587 23.2334 22.9078 23.2334 23.2503 23.2334C23.5929 23.2334 23.9214 23.0951 24.1637 22.849C24.4059 22.6028 24.542 22.269 24.542 21.9209C24.542 21.5728 24.4059 21.239 24.1637 20.9928C23.9214 20.7467 23.5929 20.6084 23.2503 20.6084Z" fill="#4C94B3"/>
</svg>
