<svg width="68" height="68" viewBox="0 0 68 68" fill="none" xmlns="http://www.w3.org/2000/svg">
<g clip-path="url(#clip0_402_203)">
<path d="M28.0234 68V61.8906C23.6285 61.8906 20.0547 58.3168 20.0547 53.9219C20.0547 49.527 23.6285 45.9531 28.0234 45.9531V39.9766H16.8874L17.8349 37.3151C17.9867 36.8929 18.0625 36.4475 18.0625 35.9922C18.0625 33.7957 16.2746 32.0078 14.0781 32.0078C11.8817 32.0078 10.0938 33.7957 10.0938 35.9922C10.0938 36.4475 10.1696 36.8929 10.3214 37.3151L11.2689 39.9766H0C0.988523 54.8638 13.1362 67.0115 28.0234 68Z" fill="#4C94B3"/>
<path d="M14.0781 28.0236C18.473 28.0236 22.0469 31.5974 22.0469 35.9923H28.0234V24.8563L30.6849 25.8037C33.1382 26.6773 35.9902 24.6968 35.9922 22.047C35.9902 19.3953 33.14 17.3992 30.6849 18.2903L28.0234 19.2378V8.20264C13.1362 9.19116 0.988523 21.1051 0 35.9923H6.10938C6.10938 31.5974 9.68323 28.0236 14.0781 28.0236Z" fill="#4C94B3"/>
<path d="M59.7975 39.9766H53.9219C53.9219 44.3715 50.348 47.9453 45.9531 47.9453C41.5582 47.9453 37.9844 44.3715 37.9844 39.9766H32.0078V51.1126L29.3464 50.1651C26.8834 49.2799 24.0371 51.2701 24.0391 53.9219C24.0371 56.5736 26.8854 58.5638 29.3464 57.6786L32.0078 56.7311V68C46.895 67.0115 58.809 54.8638 59.7975 39.9766Z" fill="#4C94B3"/>
<path d="M59.8984 16.0703V8.10156H51.9297C51.9297 3.70666 48.3558 0 43.9609 0C39.566 0 35.9922 3.70666 35.9922 8.10156H32.0078V14.0781C36.4027 14.0781 39.9766 17.652 39.9766 22.0469C39.9766 26.4418 36.4027 30.0156 32.0078 30.0156V35.9922H43.1439L42.1964 38.6536C42.0446 39.0758 41.9688 39.5213 41.9688 39.9766C41.9688 42.173 43.7567 43.9609 45.9531 43.9609C48.1496 43.9609 49.9375 42.173 49.9375 39.9766C49.9375 39.5213 49.8617 39.0758 49.7099 38.6536L48.7624 35.9922H59.8984V32.0078C64.2933 32.0078 68 28.434 68 24.0391C68 19.6442 64.2933 16.0703 59.8984 16.0703Z" fill="#6BC067"/>
</g>
<defs>
<clipPath id="clip0_402_203">
<rect width="68" height="68" fill="white"/>
</clipPath>
</defs>
</svg>
