<svg width="42" height="43" viewBox="0 0 42 43" fill="none" xmlns="http://www.w3.org/2000/svg">
<g clip-path="url(#clip0_402_1123)">
<path d="M23.423 18.3177H26.6536C27.3227 18.3177 27.8652 17.7752 27.8652 17.1061C27.8652 16.437 27.3227 15.8945 26.6536 15.8945H23.423C22.7539 15.8945 22.2114 16.437 22.2114 17.1061C22.2114 17.7752 22.7539 18.3177 23.423 18.3177Z" fill="#4C94B3"/>
<path d="M40.7884 20.7411H31.9037V4.18324C31.9037 3.51418 31.3613 2.97168 30.6922 2.97168H11.3078C10.6387 2.97168 10.0963 3.51418 10.0963 4.18324V20.7411H1.21156C0.542496 20.7411 0 21.2832 0 21.9523V39.7217C0 40.3907 0.542496 40.9332 1.21156 40.9332H40.7884C41.4575 40.9332 42 40.3907 42 39.7217V21.9523C42 21.2832 41.4575 20.7411 40.7884 20.7411ZM28.6731 23.1639H32.7116V28.8179H28.6731V23.1639ZM23.0194 5.39481V11.0486H18.9806V5.39481H23.0194ZM12.5194 5.39481H16.5578V12.2601C16.5578 12.9292 17.1 13.4717 17.7694 13.4717H24.2306C24.9 13.4717 25.4422 12.9292 25.4422 12.2601V5.39481H29.4806V20.7411H12.5194V5.39481ZM12.9231 23.1639V28.8179H8.88469V23.1639H12.9231ZM2.42313 23.1639H6.46156V30.0295C6.46156 30.6986 7.00406 31.2411 7.67313 31.2411H14.1347C14.8038 31.2411 15.3463 30.6986 15.3463 30.0295V23.1639H19.7884V38.5101H2.42313V23.1639ZM39.5769 38.5101H22.2116V23.1639H26.25V30.0295C26.25 30.6986 26.7925 31.2411 27.4616 31.2411H33.9231C34.5922 31.2411 35.1347 30.6986 35.1347 30.0295V23.1639H39.5769V38.5101Z" fill="#4C94B3"/>
<path d="M33.5192 33.6641C32.8498 33.6641 32.3076 34.2066 32.3076 34.8756C32.3076 35.5447 32.8498 36.0872 33.5192 36.0872H36.7498C37.4189 36.0872 37.9614 35.5447 37.9614 34.8756C37.9614 34.2066 37.4189 33.6641 36.7498 33.6641H33.5192Z" fill="#4C94B3"/>
<path d="M16.5577 33.6641H13.3268C12.6577 33.6641 12.1152 34.2066 12.1152 34.8756C12.1152 35.5447 12.6577 36.0872 13.3268 36.0872H16.5577C17.2268 36.0872 17.7693 35.5447 17.7693 34.8756C17.7693 34.2066 17.2268 33.6641 16.5577 33.6641Z" fill="#4C94B3"/>
</g>
<defs>
<clipPath id="clip0_402_1123">
<rect width="42" height="42" fill="white" transform="translate(0 0.920898)"/>
</clipPath>
</defs>
</svg>
