<svg width="741" height="363" viewBox="0 0 741 363" fill="none" xmlns="http://www.w3.org/2000/svg">
<path fill-rule="evenodd" clip-rule="evenodd" d="M52.3151 0H171.781V363H122.589V48.4H52.3151V0ZM383.774 0.390323C393.378 0.546452 402.592 1.17097 407.589 1.95161C412.118 2.65419 420.551 4.44968 426.329 5.9329C432.107 7.41613 440.93 10.2264 445.849 12.1781C450.768 14.1297 458.499 17.6426 463.027 19.9065C467.556 22.2484 474.896 26.5419 479.425 29.5865C483.953 32.5529 490.59 37.3929 494.26 40.3594C497.852 43.2477 504.099 48.9464 508.081 52.8497C512.063 56.831 518.075 63.5445 521.433 67.76C524.712 71.8974 529.631 78.689 532.208 82.7484C534.863 86.8077 538.767 93.5213 540.953 97.5806C543.14 101.64 546.497 109.056 548.449 113.974C550.401 118.892 552.978 126.621 554.305 131.148C555.555 135.676 557.351 143.17 558.21 147.932C559.069 152.694 560.162 160.188 560.63 164.716C561.099 169.244 561.411 174.396 561.411 179.548H513.39L512.375 169.634C511.829 164.092 510.579 155.973 509.564 151.445C508.549 146.917 506.441 139.735 504.801 135.442C503.24 131.148 499.96 123.966 497.618 119.439C495.275 114.911 491.605 108.822 489.497 105.777C487.389 102.733 483.329 97.5026 480.362 94.0677C477.473 90.6329 471.929 85.0903 468.103 81.6555C464.199 78.2987 457.952 73.4587 454.048 70.8826C450.144 68.3064 443.663 64.4813 439.603 62.4516C435.542 60.4219 429.062 57.6116 425.158 56.2065C421.253 54.8794 414.46 52.8497 409.932 51.8348C405.403 50.82 396.97 49.571 391.192 49.0245C383.071 48.3219 378.308 48.3219 370.5 49.0245C364.956 49.571 356.679 50.82 352.151 51.8348C347.622 52.8497 340.829 54.8794 336.925 56.2065C333.021 57.6116 326.384 60.5 322.089 62.6077C317.795 64.7935 311.626 68.3064 308.425 70.4923C305.223 72.6 300.304 76.191 297.493 78.4548C294.682 80.7187 289.607 85.5587 286.171 89.0716C282.658 92.6626 277.895 98.2832 275.552 101.484C273.132 104.685 269.696 109.759 267.9 112.803C266.104 115.848 263.293 121.078 261.653 124.513C260.014 127.948 257.359 134.427 255.875 138.955C254.392 143.483 252.362 150.977 251.425 155.739C250.332 161.281 249.551 168.619 249.316 176.426C249.004 183.842 249.238 191.726 249.863 196.723C250.41 201.25 251.815 208.979 253.064 213.897C254.314 218.815 256.89 226.699 258.842 231.461C260.795 236.223 264.074 242.937 266.104 246.528C268.134 250.119 272.429 256.598 275.708 260.97C278.988 265.341 285 272.133 288.982 276.036C293.042 279.861 299.133 285.17 302.568 287.746C306.004 290.322 311.938 294.225 315.842 296.411C319.747 298.597 326.93 302.032 331.849 303.905C336.768 305.779 344.186 308.121 348.247 309.135C352.307 310.072 360.037 311.555 365.425 312.492C375.107 314.132 376.434 314.132 741 314.6V363H560.786C404.622 363 379.323 362.844 370.5 361.829C364.956 361.126 356.289 359.955 351.37 359.097C346.451 358.238 338.33 356.599 333.411 355.35C328.492 354.101 320.215 351.368 315.062 349.339C309.908 347.309 302.334 343.952 298.274 341.923C294.214 339.893 287.186 335.755 282.658 332.789C278.129 329.823 271.648 325.139 268.212 322.406C264.777 319.674 258.218 313.741 253.689 309.214C249.16 304.686 243.226 298.128 240.493 294.694C237.76 291.259 233.075 284.779 230.108 280.252C227.141 275.724 222.144 266.746 218.942 260.345C215.819 253.866 211.681 243.874 209.729 238.097C207.855 232.32 205.356 223.186 204.263 217.8C203.248 212.414 201.921 203.826 201.374 198.674C200.827 192.897 200.593 183.842 200.905 175.255C201.14 166.746 201.999 157.534 202.936 151.835C203.795 146.683 205.747 138.096 207.23 132.71C208.714 127.323 211.368 119.361 213.086 114.911C214.882 110.539 217.927 103.67 219.879 99.7664C221.91 95.7852 225.345 89.54 227.61 85.871C229.874 82.2019 233.856 76.4252 236.355 72.9903C238.932 69.5555 244.163 63.2323 247.989 58.9387C251.815 54.7232 258.764 47.8535 263.527 43.8723C268.29 39.8129 276.333 33.7239 281.486 30.289C286.64 26.7761 296.166 21.4677 302.568 18.2671C309.049 15.1445 317.404 11.4755 321.308 10.1484C325.212 8.82129 332.396 6.71355 337.315 5.46452C342.234 4.21548 350.199 2.65419 354.884 2.02968C359.568 1.3271 364.566 0.702579 365.815 0.468386C367.064 0.312257 375.185 0.234194 383.774 0.390323ZM0 72.6H99.1644V363H52.3151V119.439H0V72.6ZM384.164 77.7523C388.693 77.9084 395.33 78.5329 399 79.1574C402.67 79.86 408.76 81.3432 412.664 82.5923C416.568 83.8413 422.659 86.4174 426.329 88.2129C429.999 90.0084 436.089 93.6774 439.915 96.3316C443.741 98.9077 449.91 104.138 453.579 107.807C457.249 111.476 462.481 117.643 465.058 121.468C467.712 125.294 471.304 131.305 473.1 134.895C474.818 138.408 477.316 144.341 478.566 148.166C479.815 151.914 481.377 157.612 482.079 160.813C482.704 164.014 483.485 169.556 484.5 179.548H437.651L437.104 174.318C436.792 171.352 435.777 166.746 434.84 163.935C433.903 161.125 432.497 157.456 431.638 155.739C430.779 154.021 428.515 150.508 426.719 147.932C424.923 145.356 421.722 141.609 419.614 139.657C417.505 137.706 413.836 134.817 411.493 133.334C409.151 131.773 405.09 129.665 402.514 128.65C399.937 127.557 395.877 126.152 393.534 125.606C391.114 124.981 385.492 124.513 380.651 124.591C375.107 124.591 370.266 125.137 366.986 125.996C364.175 126.699 358.944 128.806 355.274 130.602C350.589 132.944 346.919 135.52 342.547 139.735C339.033 143.014 334.895 148.01 333.021 151.055C331.147 154.099 328.726 159.095 327.633 162.218C326.54 165.263 325.212 171.117 324.744 175.099C323.963 181.188 324.041 183.452 325.134 190.087C325.837 194.381 327.399 200.157 328.57 202.968C329.741 205.778 332.162 210.15 333.801 212.726C335.519 215.302 339.111 219.517 341.688 222.094C344.342 224.67 348.715 228.104 351.448 229.744C354.181 231.383 359.256 233.569 362.692 234.662C366.127 235.755 372.452 237.16 376.747 237.863C383.696 239.034 403.763 239.19 741 239.658V285.716H563.129C411.805 285.716 383.852 285.56 375.575 284.545C370.188 283.921 362.848 282.828 359.178 282.125C355.508 281.423 349.574 279.783 345.904 278.534C342.234 277.207 337.315 275.177 334.973 274.006C332.63 272.835 327.321 269.635 323.26 266.903C318.888 264.014 312.641 258.706 308.034 254.1C303.74 249.806 298.274 243.327 295.853 239.658C293.433 235.989 290.075 230.368 288.514 227.168C286.874 223.967 284.453 217.8 282.97 213.506C281.564 209.213 279.847 202.343 279.144 198.284C278.519 194.225 277.973 186.496 277.973 181.11C277.973 175.723 278.519 168.151 279.144 164.326C279.847 160.501 281.252 154.334 282.345 150.665C283.438 146.995 285.781 141.063 287.421 137.394C289.138 133.725 292.886 127.245 295.775 122.952C298.742 118.502 303.974 112.101 308.034 108.119C311.86 104.216 317.326 99.4542 320.137 97.4245C322.948 95.4729 327.633 92.4284 330.678 90.711C333.723 89.0716 339.267 86.4174 343.171 84.8561C347.075 83.2948 353.166 81.3432 356.836 80.4845C360.505 79.6258 366.284 78.5329 369.719 78.1426C373.155 77.7523 379.636 77.5181 384.164 77.7523Z" fill="#606060" fill-opacity="0.05"/>
</svg>
