<svg width="93" height="45" viewBox="0 0 93 45" fill="none" xmlns="http://www.w3.org/2000/svg">
<g clip-path="url(#clip0_247_1055)">
<path fill-rule="evenodd" clip-rule="evenodd" d="M47.8797 39.0129C46.0358 38.8971 44.2082 38.5952 42.425 38.1119C42.1221 38.0235 40.8638 37.5608 40.544 37.4141C37.8691 36.179 35.5743 34.2492 33.8988 31.8257C32.2232 29.4023 31.2282 26.5738 31.0174 23.635C30.8066 20.6963 31.3877 17.7548 32.7002 15.117C34.0127 12.4792 36.0086 10.2416 38.4798 8.63735C40.9511 7.03311 43.8073 6.12093 46.751 5.99584C49.6946 5.87075 52.618 6.53733 55.2164 7.92613C57.8149 9.31492 59.9933 11.3751 61.5249 13.8921C63.0564 16.409 63.885 19.2906 63.9243 22.2367H69.8775C69.8414 18.2785 68.7587 14.4003 66.7392 10.9958C64.7197 7.5913 61.8354 4.78176 58.3791 2.85237C54.9228 0.922988 51.0175 -0.0575459 47.0597 0.0103128C43.1019 0.0781716 39.2325 1.19201 35.8444 3.23875C32.4562 5.28548 29.6699 8.19225 27.7683 11.664C25.8668 15.1357 24.9176 19.0487 25.0172 23.0058C25.1169 26.9629 26.2617 30.8233 28.3356 34.1949C30.4095 37.5665 33.3385 40.3294 36.8254 42.203C38.0201 42.8114 39.2587 43.3295 40.5308 43.7529C42.7012 44.3624 44.9277 44.7506 47.1763 44.9116C47.9174 44.968 50.5093 44.9962 51.2655 45H92.2703V39.0693H51.3351C50.7858 39.0693 48.4121 39.0487 47.8797 39.0129ZM51.3351 29.7003C50.9043 29.7003 48.6378 29.6871 48.2202 29.6514C47.416 29.5962 46.6158 29.4932 45.8239 29.3429C45.2167 29.1902 44.6263 28.9772 44.0614 28.7072C42.9682 28.1149 42.05 27.2456 41.3988 26.1865C40.7475 25.1273 40.3862 23.9156 40.3511 22.6728C40.3159 21.43 40.6081 20.1997 41.1984 19.1055C41.7887 18.0112 42.6564 17.0914 43.7143 16.4383C44.7723 15.7852 45.9833 15.4217 47.2261 15.3843C48.4688 15.3468 49.6996 15.6368 50.7949 16.2252C51.8902 16.8135 52.8116 17.6794 53.4666 18.7362C54.1217 19.793 54.4874 21.0034 54.527 22.2461H60.247C60.2094 19.9759 59.5693 17.7565 58.3923 15.815C57.2152 13.8734 55.5435 12.2794 53.5481 11.1962C51.5528 10.1129 49.3054 9.57915 47.036 9.64963C44.7667 9.72011 42.5567 10.3923 40.6324 11.5973C38.7081 12.8023 37.1385 14.4969 36.0842 16.5078C35.03 18.5186 34.5288 20.7735 34.6322 23.0416C34.7355 25.3097 35.4395 27.5097 36.6723 29.4163C37.9051 31.323 39.6222 32.8679 41.6481 33.893C42.3478 34.2524 43.082 34.5404 43.8395 34.7525C45.1667 35.0689 46.5182 35.2727 47.8797 35.362C48.3537 35.4015 50.6748 35.4203 51.1658 35.4222V35.4316H92.2703V29.7003H51.3351ZM21.3338 44.9774H15.3411V5.99461H6.58335V0H21.3376L21.3338 44.9774ZM0 8.98909V14.7542H6.58335V44.9774H12.341V8.98909H0Z" fill="white"/>
<path d="M81.6805 0.41776C80.6422 0.409741 79.6431 0.814035 78.9025 1.5419C78.162 2.26977 77.7405 3.26173 77.7305 4.30005C77.7379 5.34538 78.1564 6.34579 78.8956 7.08497C79.6348 7.82414 80.6352 8.24267 81.6805 8.25006C82.2 8.25255 82.7147 8.15208 83.1951 7.95446C83.6754 7.75684 84.1119 7.46598 84.4792 7.09869C84.8465 6.7314 85.1373 6.29496 85.3349 5.8146C85.5326 5.33424 85.633 4.81947 85.6305 4.30005C85.6319 3.78411 85.5302 3.2731 85.3313 2.79703C85.1324 2.32096 84.8404 1.88942 84.4724 1.52776C84.1045 1.1661 83.668 0.881613 83.1885 0.690998C82.7091 0.500382 82.1964 0.407485 81.6805 0.41776ZM81.6805 7.6143C81.2441 7.61754 80.8114 7.53408 80.4076 7.36874C80.0037 7.2034 79.6366 6.95949 79.3278 6.65116C79.0189 6.34283 78.7744 5.97623 78.6084 5.57262C78.4424 5.16902 78.3581 4.73646 78.3607 4.30005C78.3607 2.48493 79.8955 1.04788 81.6805 1.04788C82.1183 1.0374 82.5538 1.11458 82.9613 1.27486C83.3688 1.43515 83.7401 1.67531 84.0534 1.98122C84.3667 2.28714 84.6157 2.65262 84.7857 3.05617C84.9557 3.45972 85.0433 3.89319 85.0433 4.33109C85.0433 4.76898 84.9557 5.20246 84.7857 5.60601C84.6157 6.00956 84.3667 6.37504 84.0534 6.68096C83.7401 6.98687 83.3688 7.22703 82.9613 7.38732C82.5538 7.5476 82.1183 7.62478 81.6805 7.6143Z" fill="white"/>
<path d="M83.1834 5.36417C83.1834 4.92778 83.1195 4.52338 82.6191 4.3635C83.2455 4.14531 83.3076 3.73526 83.3076 3.48697C83.3076 2.48442 82.3972 2.3584 82.0229 2.3584H80.2999V6.24069H81.0203V4.64564H81.5846C82.3972 4.64564 82.4649 5.02183 82.4649 5.36417C82.4649 6.02626 82.4649 6.14853 82.6191 6.24069H83.3395C83.1834 6.08457 83.2455 5.96043 83.1834 5.36417ZM81.8667 4.08135H81.0222V2.85873H81.7464C82.2467 2.85873 82.589 3.01673 82.589 3.48697C82.5872 3.73526 82.4649 4.08135 81.8649 4.08135H81.8667Z" fill="white"/>
</g>
<defs>
<clipPath id="clip0_247_1055">
<rect width="92.2722" height="45" fill="white"/>
</clipPath>
</defs>
</svg>
