<svg width="24" height="24" viewBox="0 0 24 24" fill="none" xmlns="http://www.w3.org/2000/svg">
<path d="M12 6.80859C9.25 6.80859 7.05859 9.04297 7.05859 11.75C7.05859 14.5 9.25 16.6914 12 16.6914C14.707 16.6914 16.9414 14.5 16.9414 11.75C16.9414 9.04297 14.707 6.80859 12 6.80859ZM12 14.9727C10.2383 14.9727 8.77734 13.5547 8.77734 11.75C8.77734 9.98828 10.1953 8.57031 12 8.57031C13.7617 8.57031 15.1797 9.98828 15.1797 11.75C15.1797 13.5547 13.7617 14.9727 12 14.9727ZM18.2734 6.63672C18.2734 7.28125 17.7578 7.79688 17.1133 7.79688C16.4688 7.79688 15.9531 7.28125 15.9531 6.63672C15.9531 5.99219 16.4688 5.47656 17.1133 5.47656C17.7578 5.47656 18.2734 5.99219 18.2734 6.63672ZM21.5391 7.79688C21.4531 6.25 21.1094 4.875 19.9922 3.75781C18.875 2.64062 17.5 2.29688 15.9531 2.21094C14.3633 2.125 9.59375 2.125 8.00391 2.21094C6.45703 2.29688 5.125 2.64062 3.96484 3.75781C2.84766 4.875 2.50391 6.25 2.41797 7.79688C2.33203 9.38672 2.33203 14.1562 2.41797 15.7461C2.50391 17.293 2.84766 18.625 3.96484 19.7852C5.125 20.9023 6.45703 21.2461 8.00391 21.332C9.59375 21.418 14.3633 21.418 15.9531 21.332C17.5 21.2461 18.875 20.9023 19.9922 19.7852C21.1094 18.625 21.4531 17.293 21.5391 15.7461C21.625 14.1562 21.625 9.38672 21.5391 7.79688ZM19.4766 17.4219C19.1758 18.2812 18.4883 18.9258 17.6719 19.2695C16.3828 19.7852 13.375 19.6562 12 19.6562C10.582 19.6562 7.57422 19.7852 6.32812 19.2695C5.46875 18.9258 4.82422 18.2812 4.48047 17.4219C3.96484 16.1758 4.09375 13.168 4.09375 11.75C4.09375 10.375 3.96484 7.36719 4.48047 6.07812C4.82422 5.26172 5.46875 4.61719 6.32812 4.27344C7.57422 3.75781 10.582 3.88672 12 3.88672C13.375 3.88672 16.3828 3.75781 17.6719 4.27344C18.4883 4.57422 19.1328 5.26172 19.4766 6.07812C19.9922 7.36719 19.8633 10.375 19.8633 11.75C19.8633 13.168 19.9922 16.1758 19.4766 17.4219Z" fill="#1C2840"/>
</svg>
