<svg width="160" height="60" viewBox="0 0 160 60" fill="none" xmlns="http://www.w3.org/2000/svg">
<g clip-path="url(#clip0_5_228)">
<path d="M65.213 24.4158V5.41553H68.3543V21.4919H76.0204V24.4258L65.213 24.4158Z" fill="white"/>
<path d="M89.9893 17.4378C89.9893 17.7644 89.964 18.307 89.9085 19.0656H80.4697C80.4588 19.4956 80.5406 19.923 80.7096 20.319C80.8786 20.7151 81.1308 21.0705 81.4494 21.3615C82.1776 21.9308 83.0903 22.215 84.0149 22.1602C85.4138 22.1602 86.3632 21.683 86.8531 20.7234H89.8681C89.7648 21.3109 89.5406 21.8707 89.2095 22.3679C88.8784 22.865 88.4475 23.2886 87.9439 23.6122C86.7904 24.3871 85.4214 24.7824 84.03 24.7425C82.0302 24.7425 80.4478 24.1447 79.2829 22.949C78.118 21.7533 77.5355 20.134 77.5355 18.0909C77.5355 16.0814 78.1129 14.4654 79.2677 13.2429C79.8729 12.6351 80.5996 12.1604 81.4008 11.8497C82.202 11.5391 83.0599 11.3992 83.9189 11.4393C84.7291 11.4054 85.5377 11.5358 86.2957 11.8225C87.0536 12.1093 87.745 12.5464 88.3278 13.1073C88.8856 13.6792 89.3205 14.3581 89.6062 15.1026C89.8918 15.8471 90.0221 16.6416 89.9893 17.4378ZM80.4697 16.8149H87.0703C87.0903 16.4012 87.0244 15.9878 86.8766 15.6006C86.7289 15.2133 86.5026 14.8605 86.2117 14.5642C85.5601 14.0036 84.713 13.7203 83.8533 13.7754C82.955 13.7263 82.0728 14.0273 81.3938 14.6144C81.0945 14.8972 80.8577 15.2389 80.6986 15.6177C80.5395 15.9966 80.4615 16.4043 80.4697 16.8149Z" fill="white"/>
<path d="M98.4231 24.7427C96.4367 24.7427 94.898 24.1181 93.8072 22.8688C92.6863 21.5325 92.1034 19.8302 92.1709 18.0911C92.1094 16.3426 92.7259 14.6374 93.8931 13.3285C94.4767 12.6983 95.1919 12.2028 95.9883 11.8765C96.7848 11.5501 97.6434 11.401 98.5039 11.4395C99.3175 11.43 100.121 11.6161 100.847 11.9821C101.528 12.3181 102.097 12.8411 102.488 13.4893V11.7811H105.458V24.4312H102.494V22.7181C102.086 23.3707 101.492 23.8869 100.787 24.2001C100.051 24.558 99.2422 24.7436 98.4231 24.7427ZM98.8574 22.1102C99.38 22.1425 99.9032 22.0566 100.388 21.8591C100.872 21.6616 101.306 21.3576 101.655 20.9698C102.284 20.1406 102.625 19.13 102.625 18.0911C102.625 17.0522 102.284 16.0416 101.655 15.2124C101.306 14.8247 100.872 14.5206 100.388 14.3231C99.9032 14.1256 99.38 14.0398 98.8574 14.072C98.3486 14.0482 97.8408 14.1373 97.3709 14.3328C96.901 14.5283 96.4807 14.8253 96.1404 15.2024C95.4958 16.0288 95.146 17.0451 95.146 18.0911C95.146 19.1371 95.4958 20.1534 96.1404 20.9798C96.4807 21.3569 96.901 21.654 97.3709 21.8495C97.8408 22.045 98.3486 22.134 98.8574 22.1102Z" fill="white"/>
<path d="M118.654 5.41553H121.629V24.4158H118.654V22.7026C118.248 23.3565 117.653 23.8731 116.947 24.1847C116.214 24.547 115.407 24.7378 114.589 24.7423C112.602 24.7423 111.065 24.1177 109.978 22.8684C108.857 21.5321 108.274 19.8298 108.342 18.0907C108.278 16.3428 108.893 14.6375 110.059 13.3281C110.642 12.698 111.358 12.2024 112.154 11.8761C112.95 11.5498 113.809 11.4006 114.67 11.4391C115.485 11.4301 116.29 11.6162 117.018 11.9817C117.696 12.3194 118.264 12.8422 118.654 13.4889V5.41553ZM115.023 22.1098C115.546 22.1428 116.069 22.0573 116.554 21.8598C117.038 21.6622 117.472 21.3578 117.821 20.9694C118.45 20.1402 118.791 19.1297 118.791 18.0907C118.791 17.0518 118.45 16.0412 117.821 15.2121C117.472 14.8237 117.038 14.5192 116.554 14.3217C116.069 14.1241 115.546 14.0386 115.023 14.0716C114.515 14.0471 114.008 14.1359 113.538 14.3315C113.069 14.5271 112.65 14.8245 112.311 15.202C111.667 16.0284 111.317 17.0447 111.317 18.0907C111.317 19.1368 111.667 20.153 112.311 20.9795C112.648 21.355 113.065 21.6512 113.532 21.8467C113.998 22.0422 114.502 22.1321 115.008 22.1098H115.023Z" fill="white"/>
<path d="M128.517 9.30901C128.093 9.71872 127.525 9.94791 126.934 9.94791C126.343 9.94791 125.775 9.71872 125.351 9.30901C124.949 8.88798 124.725 8.32961 124.725 7.7491C124.725 7.16859 124.949 6.61022 125.351 6.18919C125.775 5.77947 126.343 5.55029 126.934 5.55029C127.525 5.55029 128.093 5.77947 128.517 6.18919C128.919 6.61022 129.143 7.16859 129.143 7.7491C129.143 8.32961 128.919 8.88798 128.517 9.30901ZM125.431 24.4158V11.7657H128.406V24.4158H125.431Z" fill="white"/>
<path d="M132.229 24.4161V11.766H135.199V13.5294C136.022 12.1378 137.4 11.4395 139.35 11.4395C142.441 11.4395 143.986 13.1141 143.986 16.4633V24.4161H141.011V17.8198C141.011 16.4432 140.803 15.4569 140.385 14.8607C139.968 14.2645 139.249 13.9665 138.229 13.9665C137.811 13.942 137.393 14.011 137.006 14.1684C136.619 14.3258 136.272 14.5675 135.991 14.8758C135.42 15.6155 135.138 16.5369 135.199 17.4681V24.4161H132.229Z" fill="white"/>
<path d="M157.036 11.7657H160.01V23.8732C160.01 26.4052 159.246 28.2239 157.717 29.3291C156.707 30.0693 155.251 30.4394 153.349 30.4394C151.776 30.5156 150.217 30.1182 148.874 29.299C148.275 28.9379 147.777 28.4333 147.424 27.8314C147.071 27.2294 146.875 26.5491 146.854 25.8526H149.965C150.238 27.2861 151.357 28.0012 153.324 27.9978C154.576 27.9978 155.509 27.6947 156.121 27.0885C156.727 26.4806 157.036 25.4809 157.036 24.0742V22.6876C156.63 23.3414 156.035 23.858 155.329 24.1696C154.595 24.5319 153.789 24.7227 152.97 24.7273C152.115 24.7689 151.262 24.621 150.471 24.2943C149.681 23.9676 148.973 23.4703 148.4 22.8383C147.255 21.5186 146.655 19.8174 146.718 18.0757C146.665 16.3242 147.297 14.6205 148.481 13.3231C149.06 12.6975 149.768 12.2038 150.557 11.8761C151.346 11.5483 152.197 11.3941 153.051 11.4241C153.866 11.4151 154.672 11.6012 155.399 11.9667C156.077 12.3043 156.645 12.8271 157.036 13.4738V11.7657ZM153.404 22.1098C153.922 22.1345 154.438 22.0434 154.915 21.8435C155.392 21.6435 155.818 21.3397 156.162 20.9543C156.816 20.1417 157.172 19.1317 157.172 18.0907C157.172 17.0497 156.816 16.0398 156.162 15.2271C155.81 14.8636 155.388 14.5741 154.921 14.3755C154.455 14.1769 153.953 14.0734 153.445 14.0711C152.938 14.0687 152.435 14.1676 151.966 14.3619C151.498 14.5561 151.073 14.8418 150.718 15.202C150.054 16.0202 149.693 17.0397 149.693 18.0907C149.693 19.1418 150.054 20.1613 150.718 20.9795C151.054 21.3516 151.469 21.6457 151.932 21.841C152.396 22.0363 152.897 22.1281 153.399 22.1098H153.404Z" fill="white"/>
<path d="M85.3532 39.8541V42.6524H83.2523C82.8601 44.7268 81.744 46.5968 80.101 47.9325C78.4917 49.2186 76.4396 49.8617 73.9448 49.8617C70.9787 49.8617 68.5967 48.9339 66.7988 47.0785C65.9017 46.1443 65.2025 45.0403 64.7427 43.8321C64.2829 42.6239 64.0719 41.336 64.1222 40.045C64.0735 37.4032 65.0336 34.8413 66.8089 32.876C68.5866 30.9267 71.0561 29.9504 74.2175 29.9471C76.2781 29.8747 78.303 30.496 79.9647 31.7105C80.6812 32.219 81.2796 32.8746 81.7196 33.633C82.1596 34.3913 82.4308 35.2348 82.515 36.1063H79.0758C78.8677 35.1235 78.2918 34.2561 77.4648 33.6798C76.5132 33.0252 75.3737 32.6955 74.2175 32.7404C72.0022 32.7404 70.3104 33.4336 69.1421 34.8202C67.9474 36.2947 67.3366 38.1533 67.425 40.045C67.3415 41.8819 67.9707 43.6805 69.1825 45.0689C69.7781 45.7327 70.5139 46.2571 71.3373 46.6046C72.1607 46.952 73.0511 47.1138 73.9448 47.0785C77.2005 47.0785 79.2021 45.6132 79.9495 42.6826H76.2679V39.8843L85.3532 39.8541Z" fill="white"/>
<path d="M87.8076 49.3846V36.7345H90.7821V39.1761C90.9548 38.3945 91.4116 37.7038 92.0649 37.2369C92.6777 36.8016 93.4128 36.5695 94.1658 36.5737C94.5591 36.5644 94.9522 36.5998 95.3374 36.6792V39.3971C94.9484 39.3546 94.5571 39.3362 94.1658 39.3419C93.6892 39.321 93.2145 39.4146 92.782 39.6149C92.3495 39.8152 91.9719 40.1161 91.6811 40.4923C91.0224 41.4632 90.7062 42.6241 90.7821 43.793V49.3846H87.8076Z" fill="white"/>
<path d="M108.049 47.8224C106.837 49.0817 105.204 49.7113 103.15 49.7113C101.096 49.7113 99.4634 49.0817 98.2514 47.8224C97.0774 46.5068 96.4291 44.8088 96.4291 43.0497C96.4291 41.2906 97.0774 39.5926 98.2514 38.277C99.5903 37.0616 101.337 36.3877 103.15 36.3877C104.963 36.3877 106.71 37.0616 108.049 38.277C109.223 39.5926 109.871 41.2906 109.871 43.0497C109.871 44.8088 109.223 46.5068 108.049 47.8224ZM100.408 45.9635C101.14 46.6784 102.124 47.079 103.15 47.079C104.176 47.079 105.16 46.6784 105.892 45.9635C106.538 45.1317 106.888 44.1105 106.888 43.0597C106.888 42.0089 106.538 40.9878 105.892 40.1559C105.16 39.441 104.176 39.0405 103.15 39.0405C102.124 39.0405 101.14 39.441 100.408 40.1559C99.7624 40.9878 99.4123 42.0089 99.4123 43.0597C99.4123 44.1105 99.7624 45.1317 100.408 45.9635Z" fill="white"/>
<path d="M117.301 49.711C116.671 49.7411 116.042 49.6435 115.452 49.4242C114.861 49.2048 114.322 48.8682 113.867 48.435C113.008 47.5809 112.584 46.335 112.584 44.6872V36.7344H115.558V43.9537C115.499 44.8013 115.707 45.6462 116.154 46.3701C116.395 46.6568 116.703 46.8806 117.051 47.0224C117.398 47.1642 117.775 47.2197 118.149 47.184C118.584 47.2226 119.021 47.1605 119.428 47.0028C119.834 46.845 120.199 46.5958 120.492 46.2747C121.013 45.5849 121.274 44.735 121.23 43.8733V36.7344H124.209V49.3845H121.23V47.6211C120.449 49.0144 119.139 49.711 117.301 49.711Z" fill="white"/>
<path d="M135.254 36.4081C136.077 36.376 136.896 36.5236 137.655 36.8404C138.414 37.1572 139.094 37.6355 139.648 38.2418C140.8 39.5779 141.396 41.3012 141.314 43.0597C141.386 44.8234 140.759 46.5446 139.567 47.8525C138.993 48.4633 138.295 48.9451 137.519 49.2656C136.743 49.5862 135.907 49.7382 135.067 49.7113C134.241 49.7143 133.426 49.5232 132.689 49.1537C131.997 48.8285 131.412 48.3146 131.002 47.6716V55.0818H128.027V36.7347H131.002V38.4478C131.423 37.7939 132.029 37.2783 132.744 36.9658C133.528 36.594 134.386 36.4033 135.254 36.4081ZM134.628 47.0788C135.13 47.0946 135.629 47.0017 136.091 46.8065C136.553 46.6113 136.967 46.3185 137.304 45.9484C137.974 45.133 138.34 44.1125 138.34 43.0597C138.34 42.0069 137.974 40.9864 137.304 40.171C136.967 39.8009 136.553 39.5081 136.091 39.3129C135.629 39.1178 135.13 39.0248 134.628 39.0406C134.119 39.0203 133.613 39.1094 133.142 39.3019C132.671 39.4944 132.248 39.7857 131.901 40.1559C131.228 40.9757 130.861 42.0015 130.861 43.0597C130.861 44.118 131.228 45.1437 131.901 45.9635C132.248 46.3337 132.671 46.625 133.142 46.8175C133.613 47.01 134.119 47.0991 134.628 47.0788Z" fill="white"/>
<path fill-rule="evenodd" clip-rule="evenodd" d="M48.8909 41.5827C48.8909 42.2107 48.7037 42.8246 48.3529 43.3467C48.0022 43.8688 47.5038 44.2758 46.9205 44.5161C46.3373 44.7564 45.6956 44.8193 45.0765 44.6968C44.4573 44.5743 43.8886 44.2719 43.4423 43.8279C42.9959 43.3838 42.6919 42.8181 42.5687 42.2021C42.4456 41.5862 42.5088 40.9478 42.7504 40.3677C42.9919 39.7875 43.401 39.2916 43.9259 38.9427C44.4508 38.5939 45.0679 38.4076 45.6991 38.4076C46.5456 38.4076 47.3575 38.7422 47.956 39.3376C48.5546 39.933 48.8909 40.7406 48.8909 41.5827ZM54.8097 29.646C54.8097 30.6665 54.5055 31.664 53.9356 32.5125C53.3657 33.361 52.5556 34.0223 51.6079 34.4128C50.6602 34.8033 49.6174 34.9055 48.6113 34.7064C47.6052 34.5073 46.681 34.0159 45.9557 33.2943C45.2303 32.5728 44.7364 31.6534 44.5362 30.6526C44.3361 29.6517 44.4388 28.6143 44.8314 27.6716C45.2239 26.7288 45.8887 25.923 46.7416 25.356C47.5946 24.7891 48.5973 24.4865 49.6231 24.4865C50.3044 24.4858 50.9792 24.6189 51.6087 24.8779C52.2383 25.137 52.8103 25.517 53.292 25.9962C53.7738 26.4755 54.1558 27.0445 54.4162 27.6708C54.6766 28.2971 54.8103 28.9683 54.8097 29.646ZM49.9059 15.1974C49.9059 16.4692 49.5268 17.7125 48.8165 18.77C48.1062 19.8275 47.0966 20.6517 45.9155 21.1384C44.7343 21.6252 43.4345 21.7525 42.1806 21.5044C40.9266 21.2562 39.7748 20.6438 38.8708 19.7445C37.9667 18.8451 37.3511 17.6993 37.1017 16.4519C36.8522 15.2045 36.9803 13.9116 37.4695 12.7365C37.9588 11.5615 38.7873 10.5572 39.8504 9.85059C40.9134 9.14399 42.1632 8.76685 43.4417 8.76685C45.1557 8.76818 46.7991 9.44611 48.0111 10.6518C49.2231 11.8575 49.9046 13.4923 49.9059 15.1974ZM34.6645 7.34509C34.6667 8.32126 34.4721 9.28795 34.0921 10.188C33.7122 11.088 33.1547 11.9031 32.4525 12.585C31.5917 13.4008 30.9092 14.3844 30.4478 15.4744C29.9864 16.5645 29.756 17.7374 29.7708 18.9201V19.7189C29.738 21.9235 30.561 24.0559 32.0687 25.6721C32.9014 26.5943 33.4477 27.7368 33.6416 28.9613C33.8354 30.1859 33.6685 31.44 33.161 32.5722C32.6535 33.7043 31.8271 34.666 30.7818 35.3408C29.7366 36.0157 28.5171 36.3748 27.271 36.3748C26.0249 36.3748 24.8055 36.0157 23.7602 35.3408C22.7149 34.666 21.8885 33.7043 21.381 32.5722C20.8735 31.44 20.7066 30.1859 20.9004 28.9613C21.0943 27.7368 21.6406 26.5943 22.4733 25.6721C23.9883 24.059 24.8187 21.9263 24.7914 19.7189V18.9251C24.8083 17.7424 24.5797 16.5689 24.12 15.478C23.6604 14.3871 22.9794 13.4022 22.1198 12.585C21.2514 11.7377 20.607 10.6899 20.244 9.53498C19.881 8.38003 19.8107 7.15372 20.0393 5.96521C20.268 4.7767 20.7884 3.66285 21.5544 2.72282C22.3204 1.78278 23.3081 1.04573 24.4297 0.577257C25.5512 0.108782 26.7718 -0.0765805 27.9828 0.037676C29.1938 0.151933 30.3576 0.562258 31.3706 1.23213C32.3837 1.90201 33.2145 2.81065 33.7892 3.87717C34.3638 4.9437 34.6645 6.13501 34.6645 7.34509ZM14.0446 48.1188C14.0446 48.5639 14.1773 48.9991 14.4259 49.3692C14.6745 49.7393 15.0278 50.0278 15.4412 50.1981C15.8547 50.3685 16.3096 50.4131 16.7484 50.3262C17.1873 50.2394 17.5905 50.025 17.9069 49.7103C18.2233 49.3955 18.4388 48.9944 18.5261 48.5578C18.6134 48.1213 18.5686 47.6687 18.3973 47.2575C18.2261 46.8462 17.9361 46.4947 17.564 46.2474C17.192 46.0001 16.7545 45.8681 16.307 45.8681C16.0102 45.8674 15.7161 45.925 15.4416 46.0376C15.1671 46.1501 14.9177 46.3154 14.7075 46.524C14.4974 46.7326 14.3307 46.9804 14.2169 47.2532C14.1031 47.526 14.0446 47.8184 14.0446 48.1137V48.1188ZM5.91882 41.5877C5.91882 42.2157 6.10601 42.8296 6.45672 43.3517C6.80743 43.8739 7.30591 44.2808 7.88912 44.5211C8.47233 44.7615 9.11407 44.8243 9.73321 44.7018C10.3523 44.5793 10.9211 44.2769 11.3674 43.8329C11.8138 43.3888 12.1178 42.8231 12.2409 42.2072C12.3641 41.5913 12.3009 40.9529 12.0593 40.3727C11.8177 39.7925 11.4086 39.2966 10.8838 38.9478C10.3589 38.5989 9.7418 38.4127 9.11053 38.4127C8.26491 38.4127 7.45385 38.7465 6.85543 39.3409C6.25702 39.9352 5.92016 40.7415 5.91882 41.5827V41.5877ZM1.90735e-06 29.651C1.90735e-06 30.6715 0.304186 31.669 0.87409 32.5175C1.44399 33.366 2.25402 34.0273 3.20174 34.4178C4.14946 34.8083 5.1923 34.9105 6.19839 34.7114C7.20448 34.5123 8.12863 34.0209 8.85398 33.2994C9.57933 32.5778 10.0733 31.6585 10.2734 30.6576C10.4736 29.6568 10.3708 28.6194 9.97828 27.6766C9.58572 26.7338 8.92095 25.928 8.06803 25.3611C7.21511 24.7941 6.21235 24.4915 5.18654 24.4915C4.50568 24.4909 3.83135 24.6237 3.20212 24.8825C2.57289 25.1412 2.00109 25.5208 1.51941 25.9995C1.03773 26.4782 0.655612 27.0466 0.394902 27.6723C0.134192 28.298 1.58395e-06 28.9687 1.90735e-06 29.646V29.651ZM4.90373 15.1974C4.90373 16.4692 5.28285 17.7125 5.99315 18.77C6.70345 19.8275 7.71303 20.6517 8.89421 21.1384C10.0754 21.6252 11.3751 21.7525 12.6291 21.5044C13.883 21.2562 15.0348 20.6438 15.9389 19.7445C16.8429 18.8451 17.4586 17.6993 17.708 16.4519C17.9574 15.2045 17.8294 13.9116 17.3401 12.7365C16.8509 11.5615 16.0223 10.5572 14.9593 9.85059C13.8963 9.14399 12.6465 8.76685 11.368 8.76685C9.65396 8.76818 8.01053 9.44611 6.79854 10.6518C5.58655 11.8575 4.90507 13.4923 4.90373 15.1974ZM40.76 48.1188C40.76 48.5639 40.6274 48.9991 40.3788 49.3692C40.1302 49.7393 39.7768 50.0278 39.3634 50.1981C38.95 50.3685 38.4951 50.4131 38.0562 50.3262C37.6173 50.2394 37.2142 50.025 36.8978 49.7103C36.5813 49.3955 36.3659 48.9944 36.2786 48.5578C36.1913 48.1213 36.2361 47.6687 36.4073 47.2575C36.5786 46.8462 36.8685 46.4947 37.2406 46.2474C37.6127 46.0001 38.0501 45.8681 38.4976 45.8681C38.7949 45.8667 39.0895 45.9239 39.3645 46.0361C39.6396 46.1484 39.8897 46.3136 40.1003 46.5223C40.311 46.7309 40.4782 46.9789 40.5923 47.252C40.7064 47.5252 40.7651 47.818 40.7651 48.1137L40.76 48.1188Z" fill="#6BC067"/>
<path fill-rule="evenodd" clip-rule="evenodd" d="M19.9078 52.6601C19.9056 51.6839 20.1002 50.7172 20.4802 49.8172C20.8601 48.9172 21.4177 48.1021 22.1198 47.4202C22.9801 46.6024 23.6614 45.6167 24.1211 44.5249C24.5808 43.4331 24.8089 42.2586 24.7914 41.0751V40.2863C24.8242 38.0816 24.0012 35.9493 22.4935 34.333C21.6608 33.4108 21.1145 32.2684 20.9206 31.0439C20.7268 29.8193 20.8937 28.5651 21.4012 27.433C21.9087 26.3008 22.7351 25.3392 23.7804 24.6644C24.8257 23.9895 26.0451 23.6304 27.2912 23.6304C28.5373 23.6304 29.7568 23.9895 30.802 24.6644C31.8473 25.3392 32.6737 26.3008 33.1812 27.433C33.6887 28.5651 33.8556 29.8193 33.6618 31.0439C33.4679 32.2684 32.9216 33.4108 32.0889 34.333C30.5739 35.9461 29.7435 38.0789 29.7708 40.2863V41.0751C29.7533 42.2586 29.9815 43.4331 30.4412 44.5249C30.9008 45.6167 31.5821 46.6024 32.4424 47.4202C33.3108 48.2675 33.9552 49.3152 34.3182 50.4702C34.6812 51.6251 34.7515 52.8514 34.5229 54.04C34.2943 55.2285 33.7738 56.3423 33.0078 57.2823C32.2418 58.2224 31.2541 58.9594 30.1325 59.4279C29.011 59.8964 27.7904 60.0817 26.5794 59.9675C25.3684 59.8532 24.2046 59.4429 23.1916 58.773C22.1785 58.1032 21.3477 57.1945 20.773 56.128C20.1984 55.0615 19.8977 53.8702 19.8977 52.6601H19.9078Z" fill="#4C94B3"/>
</g>
<defs>
<clipPath id="clip0_5_228">
<rect width="160" height="60" fill="white"/>
</clipPath>
</defs>
</svg>
