<svg width="140" height="52" viewBox="0 0 140 52" fill="none" xmlns="http://www.w3.org/2000/svg">
<g clip-path="url(#clip0_35_106)">
<path d="M57.0614 21.1605V4.6936H59.81V18.6265H66.5179V21.1692L57.0614 21.1605Z" fill="#231F20"/>
<path d="M78.7406 15.1128C78.7406 15.3958 78.7185 15.8661 78.6699 16.5235H70.411C70.4015 16.8963 70.4731 17.2667 70.6209 17.6099C70.7688 17.9531 70.9895 18.2611 71.2682 18.5133C71.9054 19.0068 72.704 19.253 73.513 19.2056C74.7371 19.2056 75.5678 18.792 75.9965 17.9604H78.6346C78.5442 18.4695 78.3481 18.9547 78.0583 19.3855C77.7686 19.8164 77.3916 20.1835 76.951 20.4639C75.9416 21.1355 74.7438 21.4782 73.5263 21.4436C71.7764 21.4436 70.3918 20.9254 69.3725 19.8892C68.3532 18.8529 67.8436 17.4495 67.8436 15.6789C67.8436 13.9373 68.3488 12.5367 69.3593 11.4772C69.8887 10.9504 70.5246 10.5391 71.2257 10.2698C71.9268 10.0006 72.6774 9.87939 73.4291 9.91415C74.138 9.88477 74.8455 9.99776 75.5087 10.2463C76.1719 10.4948 76.7769 10.8736 77.2868 11.3597C77.7749 11.8554 78.1555 12.4437 78.4054 13.089C78.6553 13.7342 78.7694 14.4228 78.7406 15.1128ZM70.411 14.5729H76.1865C76.204 14.2144 76.1463 13.8562 76.0171 13.5205C75.8878 13.1849 75.6898 12.8792 75.4353 12.6223C74.8651 12.1365 74.1239 11.891 73.3716 11.9388C72.5856 11.8962 71.8137 12.157 71.2196 12.6659C70.9577 12.9109 70.7505 13.2071 70.6113 13.5354C70.4721 13.8638 70.4038 14.2171 70.411 14.5729Z" fill="#231F20"/>
<path d="M86.1202 21.4435C84.3821 21.4435 83.0358 20.9022 82.0813 19.8195C81.1006 18.6613 80.5904 17.186 80.6496 15.6788C80.5957 14.1634 81.1352 12.6856 82.1564 11.5512C82.6672 11.005 83.2929 10.5755 83.9898 10.2927C84.6867 10.01 85.438 9.88071 86.1909 9.91408C86.9028 9.90578 87.6062 10.0671 88.2413 10.3843C88.8369 10.6755 89.3353 11.1288 89.6774 11.6905V10.2102H92.2757V21.1736H89.6818V19.6888C89.3254 20.2544 88.8052 20.7018 88.1882 20.9733C87.5443 21.2834 86.8369 21.4443 86.1202 21.4435ZM86.5002 19.162C86.9575 19.19 87.4153 19.1156 87.8393 18.9444C88.2632 18.7732 88.6424 18.5097 88.9483 18.1736C89.4989 17.455 89.7968 16.5792 89.7968 15.6788C89.7968 14.7784 89.4989 13.9025 88.9483 13.1839C88.6424 12.8479 88.2632 12.5843 87.8393 12.4132C87.4153 12.242 86.9575 12.1676 86.5002 12.1956C86.055 12.1749 85.6107 12.2521 85.1995 12.4216C84.7884 12.591 84.4206 12.8484 84.1229 13.1752C83.5589 13.8915 83.2527 14.7723 83.2527 15.6788C83.2527 16.5853 83.5589 17.4661 84.1229 18.1824C84.4206 18.5092 84.7884 18.7666 85.1995 18.936C85.6107 19.1055 86.055 19.1827 86.5002 19.162Z" fill="#231F20"/>
<path d="M103.822 4.6936H106.425V21.1605H103.822V19.6758C103.467 20.2424 102.947 20.6901 102.329 20.9602C101.687 21.2742 100.981 21.4395 100.265 21.4435C98.527 21.4435 97.1822 20.9021 96.2307 19.8194C95.2499 18.6613 94.7398 17.186 94.7989 15.6788C94.7434 14.1639 95.2813 12.686 96.3014 11.5512C96.8121 11.005 97.4378 10.5755 98.1347 10.2927C98.8317 10.0099 99.5829 9.8807 100.336 9.91407C101.049 9.90627 101.754 10.0675 102.391 10.3843C102.984 10.677 103.481 11.13 103.822 11.6905V4.6936ZM100.645 19.162C101.103 19.1906 101.561 19.1165 101.985 18.9453C102.409 18.7741 102.788 18.5102 103.093 18.1736C103.644 17.455 103.942 16.5792 103.942 15.6788C103.942 14.7784 103.644 13.9025 103.093 13.1839C102.788 12.8473 102.409 12.5835 101.985 12.4123C101.561 12.2411 101.103 12.167 100.645 12.1956C100.201 12.1743 99.7567 12.2513 99.3462 12.4208C98.9356 12.5903 98.5687 12.848 98.2722 13.1752C97.7082 13.8915 97.4021 14.7722 97.4021 15.6788C97.4021 16.5853 97.7082 17.4661 98.2722 18.1823C98.5672 18.5078 98.932 18.7645 99.3401 18.9339C99.7482 19.1034 100.189 19.1813 100.632 19.162H100.645Z" fill="#231F20"/>
<path d="M112.452 8.06798C112.081 8.42307 111.584 8.62169 111.067 8.62169C110.55 8.62169 110.053 8.42307 109.682 8.06798C109.33 7.70309 109.134 7.21917 109.134 6.71606C109.134 6.21295 109.33 5.72903 109.682 5.36414C110.053 5.00905 110.55 4.81042 111.067 4.81042C111.584 4.81042 112.081 5.00905 112.452 5.36414C112.804 5.72903 113 6.21295 113 6.71606C113 7.21917 112.804 7.70309 112.452 8.06798ZM109.753 21.1605V10.1971H112.355V21.1605H109.753Z" fill="#231F20"/>
<path d="M115.7 21.1605V10.1971H118.299V11.7253C119.019 10.5193 120.225 9.91406 121.931 9.91406C124.635 9.91406 125.988 11.3654 125.988 14.2681V21.1605H123.385V15.4437C123.385 14.2507 123.202 13.3958 122.837 12.8791C122.472 12.3625 121.843 12.1041 120.95 12.1041C120.585 12.083 120.219 12.1428 119.88 12.2792C119.542 12.4155 119.238 12.625 118.992 12.8922C118.492 13.5333 118.245 14.3318 118.299 15.1389V21.1605H115.7Z" fill="#231F20"/>
<path d="M137.406 10.1971H140.009V20.6902C140.009 22.8847 139.34 24.4608 138.003 25.4187C137.119 26.0602 135.845 26.3809 134.18 26.3809C132.804 26.447 131.44 26.1026 130.265 25.3926C129.741 25.0796 129.305 24.6424 128.996 24.1207C128.687 23.5989 128.516 23.0094 128.498 22.4057H131.22C131.458 23.6481 132.438 24.2678 134.158 24.2649C135.254 24.2649 136.07 24.0022 136.606 23.4768C137.137 22.95 137.406 22.0835 137.406 20.8644V19.6627C137.051 20.2294 136.53 20.6771 135.913 20.9471C135.271 21.2612 134.565 21.4265 133.849 21.4304C133.101 21.4665 132.354 21.3383 131.662 21.0552C130.971 20.7721 130.352 20.341 129.85 19.7933C128.848 18.6496 128.323 17.1752 128.378 15.6657C128.332 14.1478 128.885 12.6713 129.92 11.5468C130.427 11.0046 131.047 10.5768 131.737 10.2927C132.428 10.0086 133.172 9.87502 133.92 9.90101C134.633 9.89321 135.338 10.0545 135.974 10.3712C136.568 10.6639 137.064 11.117 137.406 11.6774V10.1971ZM134.229 19.162C134.681 19.1833 135.133 19.1045 135.551 18.9312C135.968 18.7579 136.341 18.4945 136.642 18.1606C137.214 17.4563 137.526 16.581 137.526 15.6788C137.526 14.7766 137.214 13.9013 136.642 13.197C136.333 12.882 135.964 12.631 135.556 12.4589C135.148 12.2868 134.709 12.1971 134.264 12.1951C133.82 12.193 133.38 12.2787 132.971 12.4471C132.561 12.6154 132.189 12.863 131.878 13.1752C131.298 13.8843 130.981 14.7678 130.981 15.6788C130.981 16.5897 131.298 17.4732 131.878 18.1823C132.173 18.5048 132.535 18.7597 132.941 18.929C133.346 19.0982 133.784 19.1778 134.224 19.162H134.229Z" fill="#231F20"/>
<path d="M74.684 34.5404V36.9656H72.8458C72.5025 38.7634 71.526 40.384 70.0884 41.5416C68.6802 42.6563 66.8847 43.2136 64.7017 43.2136C62.1063 43.2136 60.0221 42.4095 58.449 40.8015C57.664 39.9919 57.0522 39.0351 56.6498 37.9879C56.2475 36.9408 56.0629 35.8247 56.1069 34.7058C56.0643 32.4163 56.9044 30.196 58.4578 28.4927C60.0132 26.8033 62.1741 25.9572 64.9403 25.9543C66.7434 25.8916 68.5151 26.43 69.9691 27.4825C70.596 27.9233 71.1196 28.4914 71.5046 29.1487C71.8896 29.8059 72.1269 30.5369 72.2006 31.2923H69.1913C69.0092 30.4405 68.5053 29.6887 67.7817 29.1893C66.949 28.6219 65.9519 28.3362 64.9403 28.3751C63.0019 28.3751 61.5216 28.9759 60.4993 30.1777C59.4539 31.4555 58.9195 33.0663 58.9969 34.7058C58.9238 36.2978 59.4744 37.8565 60.5347 39.0598C61.0558 39.6351 61.6997 40.0896 62.4201 40.3908C63.1406 40.6919 63.9197 40.8321 64.7017 40.8015C67.5504 40.8015 69.3018 39.5315 69.9558 36.9917H66.7344V34.5665L74.684 34.5404Z" fill="#231F20"/>
<path d="M76.8316 42.7999V31.8365H79.4344V33.9526C79.5854 33.2752 79.9851 32.6766 80.5568 32.2719C81.093 31.8946 81.7362 31.6935 82.395 31.6972C82.7392 31.6891 83.0831 31.7198 83.4202 31.7886V34.1441C83.0798 34.1073 82.7374 34.0913 82.395 34.0962C81.978 34.0781 81.5627 34.1593 81.1843 34.3329C80.8058 34.5064 80.4754 34.7673 80.2209 35.0933C79.6446 35.9347 79.3679 36.9409 79.4344 37.9539V42.7999H76.8316Z" fill="#231F20"/>
<path d="M94.5427 41.4458C93.4821 42.5372 92.0533 43.0829 90.2563 43.0829C88.4593 43.0829 87.0305 42.5372 85.97 41.4458C84.9428 40.3057 84.3755 38.834 84.3755 37.3095C84.3755 35.785 84.9428 34.3133 85.97 33.1732C87.1415 32.1198 88.6703 31.5358 90.2563 31.5358C91.8423 31.5358 93.3711 32.1198 94.5427 33.1732C95.5698 34.3133 96.1371 35.785 96.1371 37.3095C96.1371 38.834 95.5698 40.3057 94.5427 41.4458ZM87.8568 39.8348C88.4972 40.4544 89.3588 40.8015 90.2563 40.8015C91.1538 40.8015 92.0154 40.4544 92.6558 39.8348C93.2205 39.1139 93.5268 38.2289 93.5268 37.3182C93.5268 36.4075 93.2205 35.5225 92.6558 34.8016C92.0154 34.182 91.1538 33.8349 90.2563 33.8349C89.3588 33.8349 88.4972 34.182 87.8568 34.8016C87.2921 35.5225 86.9858 36.4075 86.9858 37.3182C86.9858 38.2289 87.2921 39.1139 87.8568 39.8348Z" fill="#231F20"/>
<path d="M102.638 43.083C102.087 43.1091 101.537 43.0245 101.02 42.8344C100.504 42.6442 100.032 42.3526 99.6332 41.9771C98.882 41.2369 98.5108 40.1571 98.5108 38.729V31.8365H101.114V38.0933C101.061 38.8279 101.244 39.5601 101.635 40.1875C101.846 40.4359 102.115 40.63 102.419 40.7529C102.723 40.8758 103.053 40.9238 103.38 40.8929C103.761 40.9263 104.144 40.8725 104.499 40.7358C104.855 40.5991 105.174 40.3831 105.431 40.1048C105.887 39.507 106.115 38.7704 106.076 38.0236V31.8365H108.683V42.8H106.076V41.2717C105.393 42.4792 104.247 43.083 102.638 43.083Z" fill="#231F20"/>
<path d="M118.347 31.5535C119.067 31.5257 119.784 31.6536 120.448 31.9282C121.113 32.2027 121.708 32.6173 122.192 33.1427C123.2 34.3006 123.722 35.7942 123.65 37.3182C123.713 38.8468 123.164 40.3384 122.121 41.472C121.619 42.0013 121.008 42.4189 120.329 42.6967C119.65 42.9746 118.919 43.1063 118.184 43.083C117.461 43.0855 116.748 42.9199 116.103 42.5997C115.497 42.3179 114.985 41.8725 114.627 41.3152V47.7374H112.024V31.8365H114.627V33.3213C114.995 32.7545 115.526 32.3077 116.151 32.0368C116.837 31.7146 117.588 31.5494 118.347 31.5535ZM117.799 40.8015C118.238 40.8151 118.675 40.7346 119.08 40.5655C119.484 40.3963 119.846 40.1426 120.141 39.8218C120.727 39.1151 121.047 38.2307 121.047 37.3182C121.047 36.4058 120.727 35.5214 120.141 34.8147C119.846 34.4939 119.484 34.2402 119.08 34.071C118.675 33.9019 118.238 33.8214 117.799 33.835C117.354 33.8174 116.911 33.8947 116.499 34.0615C116.087 34.2283 115.717 34.4808 115.413 34.8016C114.825 35.5121 114.503 36.4011 114.503 37.3182C114.503 38.2354 114.825 39.1244 115.413 39.8349C115.717 40.1557 116.087 40.4082 116.499 40.575C116.911 40.7418 117.354 40.8191 117.799 40.8015Z" fill="#231F20"/>
<path fill-rule="evenodd" clip-rule="evenodd" d="M42.7795 36.0382C42.7795 36.5824 42.6157 37.1144 42.3088 37.5669C42.002 38.0195 41.5658 38.3722 41.0555 38.5804C40.5452 38.7887 39.9836 38.8432 39.4419 38.737C38.9002 38.6308 38.4025 38.3688 38.012 37.9839C37.6214 37.5991 37.3554 37.1088 37.2477 36.575C37.1399 36.0412 37.1952 35.4879 37.4066 34.9851C37.618 34.4823 37.9759 34.0525 38.4352 33.7502C38.8944 33.4478 39.4344 33.2864 39.9867 33.2864C40.7274 33.2864 41.4378 33.5763 41.9615 34.0924C42.4853 34.6084 42.7795 35.3083 42.7795 36.0382ZM47.9585 25.693C47.9585 26.5774 47.6923 27.4419 47.1936 28.1773C46.695 28.9126 45.9862 29.4858 45.1569 29.8242C44.3277 30.1626 43.4152 30.2512 42.5349 30.0787C41.6545 29.9061 40.8459 29.4803 40.2112 28.8549C39.5765 28.2295 39.1443 27.4328 38.9692 26.5654C38.7941 25.698 38.884 24.7989 39.2275 23.9818C39.571 23.1647 40.1526 22.4664 40.8989 21.975C41.6452 21.4837 42.5227 21.2214 43.4202 21.2214C44.0164 21.2209 44.6068 21.3361 45.1576 21.5607C45.7085 21.7852 46.209 22.1145 46.6305 22.5299C47.0521 22.9452 47.3863 23.4384 47.6142 23.9811C47.8421 24.5239 47.959 25.1056 47.9585 25.693ZM43.6677 13.1709C43.6677 14.2731 43.336 15.3506 42.7145 16.2671C42.0929 17.1836 41.2096 17.898 40.176 18.3198C39.1425 18.7416 38.0052 18.852 36.908 18.6369C35.8108 18.4219 34.803 17.8911 34.0119 17.1117C33.2209 16.3323 32.6822 15.3392 32.464 14.2581C32.2457 13.1771 32.3577 12.0565 32.7858 11.0381C33.2139 10.0198 33.9389 9.14936 34.8691 8.53698C35.7992 7.92459 36.8928 7.59773 38.0115 7.59773C39.5113 7.59888 40.9492 8.18643 42.0097 9.23134C43.0702 10.2763 43.6665 11.6931 43.6677 13.1709ZM30.3314 6.36554C30.3334 7.21155 30.1631 8.04935 29.8306 8.82938C29.4982 9.6094 29.0103 10.3158 28.3959 10.9068C27.6427 11.6138 27.0456 12.4663 26.6418 13.411C26.2381 14.3557 26.0365 15.3722 26.0495 16.3972V17.0895C26.0208 19.0002 26.7409 20.8482 28.0601 22.249C28.7887 23.0482 29.2668 24.0383 29.4364 25.0996C29.606 26.1609 29.4599 27.2478 29.0159 28.229C28.5718 29.2102 27.8487 30.0436 26.9341 30.6285C26.0195 31.2134 24.9525 31.5246 23.8621 31.5246C22.7718 31.5246 21.7048 31.2134 20.7902 30.6285C19.8755 30.0436 19.1525 29.2102 18.7084 28.229C18.2643 27.2478 18.1183 26.1609 18.2879 25.0996C18.4575 24.0383 18.9355 23.0482 19.6642 22.249C20.9898 20.8509 21.7164 19.0026 21.6924 17.0895V16.4016C21.7072 15.3765 21.5073 14.3595 21.105 13.414C20.7028 12.4686 20.107 11.6151 19.3548 10.9068C18.5949 10.1725 18.0311 9.2644 17.7135 8.26344C17.3959 7.26249 17.3344 6.19969 17.5344 5.16964C17.7345 4.1396 18.1899 3.17427 18.8601 2.35957C19.5303 1.54488 20.3946 0.906097 21.376 0.500086C22.3573 0.0940744 23.4254 -0.0665733 24.485 0.0324491C25.5446 0.131471 26.5629 0.487087 27.4493 1.06764C28.3357 1.6482 29.0627 2.43569 29.5655 3.36001C30.0684 4.28433 30.3315 5.31681 30.3314 6.36554ZM12.289 41.7027C12.289 42.0885 12.4051 42.4656 12.6226 42.7864C12.8402 43.1072 13.1493 43.3572 13.5111 43.5048C13.8728 43.6525 14.2709 43.6911 14.6549 43.6158C15.0389 43.5406 15.3916 43.3548 15.6685 43.082C15.9454 42.8092 16.1339 42.4616 16.2103 42.0833C16.2867 41.7049 16.2475 41.3127 16.0976 40.9563C15.9478 40.5998 15.6941 40.2952 15.3685 40.0809C15.043 39.8665 14.6602 39.7521 14.2687 39.7521C14.0089 39.7516 13.7516 39.8015 13.5114 39.899C13.2713 39.9966 13.053 40.1398 12.8691 40.3206C12.6852 40.5014 12.5393 40.7162 12.4398 40.9526C12.3402 41.189 12.289 41.4424 12.289 41.6984V41.7027ZM5.17897 36.0425C5.17897 36.5868 5.34276 37.1188 5.64963 37.5713C5.9565 38.0238 6.39267 38.3765 6.90298 38.5848C7.41329 38.7931 7.97481 38.8476 8.51656 38.7414C9.0583 38.6352 9.55592 38.3731 9.94649 37.9883C10.3371 37.6034 10.603 37.1131 10.7108 36.5793C10.8186 36.0456 10.7633 35.4923 10.5519 34.9895C10.3405 34.4867 9.98255 34.0569 9.52328 33.7545C9.06402 33.4522 8.52407 33.2908 7.97172 33.2908C7.2318 33.2908 6.52212 33.5801 5.9985 34.0952C5.47489 34.6103 5.18014 35.3091 5.17897 36.0382V36.0425ZM0 25.6974C0 26.5818 0.266161 27.4463 0.764827 28.1816C1.26349 28.917 1.97227 29.4901 2.80152 29.8286C3.63077 30.167 4.54326 30.2556 5.42359 30.083C6.30392 29.9105 7.11255 29.4846 7.74723 28.8592C8.38191 28.2339 8.81414 27.4371 8.98925 26.5697C9.16436 25.7023 9.07448 24.8032 8.73099 23.9862C8.38751 23.1691 7.80583 22.4707 7.05953 21.9794C6.31322 21.488 5.4358 21.2258 4.53823 21.2258C3.94247 21.2252 3.35243 21.3404 2.80185 21.5646C2.25128 21.7888 1.75095 22.1178 1.32948 22.5327C0.908013 22.9476 0.573659 23.4402 0.345538 23.9825C0.117416 24.5248 -2.82974e-07 25.106 0 25.693V25.6974ZM4.29076 13.1709C4.29076 14.2731 4.62249 15.3506 5.24401 16.2671C5.86552 17.1836 6.7489 17.898 7.78243 18.3198C8.81597 18.7416 9.95325 18.852 11.0504 18.6369C12.1476 18.4219 13.1555 17.8911 13.9465 17.1117C14.7375 16.3323 15.2762 15.3392 15.4945 14.2581C15.7127 13.1771 15.6007 12.0565 15.1726 11.0381C14.7445 10.0198 14.0196 9.14936 13.0894 8.53698C12.1592 7.92459 11.0657 7.59773 9.94697 7.59773C8.44721 7.59888 7.00921 8.18643 5.94872 9.23134C4.88823 10.2763 4.29193 11.6931 4.29076 13.1709ZM35.665 41.7027C35.665 42.0885 35.5489 42.4656 35.3314 42.7864C35.1139 43.1072 34.8047 43.3572 34.443 43.5048C34.0812 43.6525 33.6832 43.6911 33.2992 43.6158C32.9151 43.5406 32.5624 43.3548 32.2855 43.082C32.0087 42.8092 31.8201 42.4616 31.7437 42.0833C31.6674 41.7049 31.7066 41.3127 31.8564 40.9563C32.0062 40.5998 32.26 40.2952 32.5855 40.0809C32.9111 39.8665 33.2938 39.7521 33.6854 39.7521C33.9455 39.751 34.2033 39.8005 34.444 39.8978C34.6847 39.9951 34.9035 40.1382 35.0878 40.3191C35.2722 40.4999 35.4184 40.7149 35.5183 40.9516C35.6181 41.1883 35.6695 41.4421 35.6695 41.6984L35.665 41.7027Z" fill="#6BC067"/>
<path fill-rule="evenodd" clip-rule="evenodd" d="M17.4194 45.6388C17.4174 44.7928 17.5877 43.955 17.9202 43.175C18.2526 42.395 18.7405 41.6886 19.3548 41.0976C20.1076 40.3888 20.7037 39.5346 21.1059 38.5883C21.5082 37.6421 21.7078 36.6242 21.6925 35.5985V34.9149C21.7212 33.0042 21.001 31.1561 19.6818 29.7554C18.9532 28.9561 18.4752 27.966 18.3056 26.9048C18.1359 25.8435 18.282 24.7565 18.7261 23.7753C19.1701 22.7941 19.8932 21.9607 20.8078 21.3759C21.7225 20.791 22.7895 20.4797 23.8798 20.4797C24.9702 20.4797 26.0372 20.791 26.9518 21.3759C27.8664 21.9607 28.5895 22.7941 29.0336 23.7753C29.4776 24.7565 29.6237 25.8435 29.4541 26.9048C29.2845 27.966 28.8064 28.9561 28.0778 29.7554C26.7522 31.1534 26.0256 33.0018 26.0495 34.9149V35.5985C26.0341 36.6242 26.2338 37.6421 26.636 38.5883C27.0382 39.5346 27.6344 40.3888 28.3871 41.0976C29.147 41.8319 29.7108 42.74 30.0285 43.7409C30.3461 44.7419 30.4076 45.8047 30.2075 46.8347C30.0075 47.8648 29.5521 48.8301 28.8818 49.6448C28.2116 50.4595 27.3473 51.0983 26.366 51.5043C25.3846 51.9103 24.3166 52.0709 23.257 51.9719C22.1974 51.8729 21.179 51.5173 20.2926 50.9367C19.4062 50.3562 18.6793 49.5687 18.1764 48.6443C17.6736 47.72 17.4105 46.6875 17.4105 45.6388H17.4194Z" fill="#4C94B3"/>
</g>
<defs>
<clipPath id="clip0_35_106">
<rect width="140" height="52" fill="white"/>
</clipPath>
</defs>
</svg>
