<svg width="24" height="24" viewBox="0 0 24 24" fill="none" xmlns="http://www.w3.org/2000/svg">
<g clip-path="url(#clip0_5_318)">
<path d="M23.8969 23.0198L19.6782 13.1761C19.5674 12.9175 19.313 12.75 19.0318 12.75H4.96929C4.68804 12.75 4.43389 12.9175 4.32311 13.1761L0.10436 23.0198C-0.0941264 23.4829 0.245717 24 0.750539 24H23.2505C23.7543 24 24.0958 23.4838 23.8969 23.0198Z" fill="#E0F4FE"/>
<path d="M23.2505 24H12.0005V12.75H19.0318C19.313 12.75 19.5672 12.9177 19.6782 13.1761L23.8969 23.0198C24.0958 23.4838 23.7545 24 23.2505 24Z" fill="#BCDCFE"/>
<path d="M3.03314 19.989L2.44501 21.1268C2.44501 21.1268 1.97607 22.2214 1.81659 22.5935H10.3032L11.2134 22.4844L6.80585 18.0547L3.03314 19.989Z" fill="#159BE1"/>
<path d="M20.8773 19.7574L20.6534 19.021C20.6534 19.021 19.6663 16.7179 18.5684 14.1562H16.0525L14.35 14.187L6.80585 18.0549L11.2134 22.4846L12.2917 22.5938H13.7547L15.4371 22.5467L20.8773 19.7574Z" fill="#5DC983"/>
<path d="M20.8773 19.7573L15.4371 22.5469L13.7547 22.5938H12.2917L12.0005 22.5643V15.3918L14.35 14.1872L15.4872 14.1665L16.0525 14.1562H18.5682C19.6661 16.7179 20.6532 19.021 20.6532 19.021L20.8773 19.7573Z" fill="#0EAB61"/>
<path d="M5.43292 14.1562C5.00189 15.162 3.31604 19.095 3.31604 19.095L3.03314 19.9893L14.3498 14.187L12.9662 14.1562H5.43292Z" fill="#0EAB61"/>
<path d="M14.35 14.1872L12.0005 15.3918V14.1562H12.9662L14.35 14.1872Z" fill="#0EAB61"/>
<path d="M20.8773 19.7573L15.4371 22.5466L16.8124 22.5936H22.1841C21.6868 21.4326 21.2087 20.3171 21.2087 20.3171L20.8773 19.7573Z" fill="#159BE1"/>
<path d="M7.98395 18.286L12.2917 22.5938H10.3032L6.66852 18.9591L2.44885 21.1181L3.31604 19.095C3.4314 19.036 12.8509 14.2152 12.9662 14.1562H16.0525L7.98395 18.286Z" fill="#FED941"/>
<path d="M12.0005 22.3027L12.2917 22.5939H12.0005V22.3027Z" fill="#FEB99E"/>
<path d="M16.0525 14.1562L15.2102 14.5875L12.0005 16.2299V14.6503C12.5781 14.3549 12.9443 14.1674 12.9662 14.1562H16.0525Z" fill="#FCBE29"/>
<path d="M21.2087 20.317L16.8124 22.5938H13.7547L20.6532 19.021L21.2087 20.317Z" fill="#FCBE29"/>
<path d="M12.0005 0C8.56348 0 5.67242 2.51953 5.67242 6.89062C5.67242 11.3214 11.2333 17.7673 11.4701 18.0396C11.7499 18.3615 12.2509 18.362 12.5312 18.0396C12.7679 17.7673 18.3287 11.3214 18.3287 6.89062C18.3287 2.55981 15.3847 0 12.0005 0ZM12.0005 8.4375C10.8375 8.4375 9.89117 7.49121 9.89117 6.32812C9.89117 5.16504 10.8375 4.21875 12.0005 4.21875C13.1636 4.21875 14.1099 5.16504 14.1099 6.32812C14.1099 7.49121 13.1636 8.4375 12.0005 8.4375Z" fill="#EE3616"/>
<path d="M12.0005 0V4.21875C13.1636 4.21875 14.1099 5.16522 14.1099 6.32812C14.1099 7.49103 13.1636 8.4375 12.0005 8.4375V18.2812C12.1961 18.2812 12.3911 18.2007 12.5312 18.0394C14.605 15.6553 18.3287 10.4626 18.3287 6.89062C18.3287 2.55981 15.3845 0 12.0005 0Z" fill="#CB0010"/>
</g>
<defs>
<clipPath id="clip0_5_318">
<rect width="24" height="24" fill="white"/>
</clipPath>
</defs>
</svg>
