<svg width="42" height="32" viewBox="0 0 42 32" fill="none" xmlns="http://www.w3.org/2000/svg">
<path d="M0 32V21.8413C0 19.0758 0.564516 16.2963 1.69355 13.5026C2.82258 10.709 4.24798 8.12698 5.96976 5.75661C7.69153 3.38624 9.42742 1.46737 11.1774 0L20.8306 4.91005C19.3629 7.36508 18.2198 9.93298 17.4012 12.6138C16.6109 15.2945 16.2298 18.3704 16.2581 21.8413V32H0ZM21.1694 32V21.8413C21.1694 19.0758 21.7339 16.2963 22.8629 13.5026C23.9919 10.709 25.4173 8.12698 27.1391 5.75661C28.8609 3.38624 30.5968 1.46737 32.3468 0L42 4.91005C40.5323 7.36508 39.3891 9.93298 38.5706 12.6138C37.7802 15.2945 37.3992 18.3704 37.4274 21.8413V32H21.1694Z" fill="#6BC067"/>
</svg>
