<svg width="60" height="60" viewBox="0 0 60 60" fill="none" xmlns="http://www.w3.org/2000/svg">
<circle cx="30" cy="30" r="30" fill="#6BC067"/>
<circle cx="30" cy="30" r="29" stroke="white" stroke-opacity="0.3" stroke-width="2"/>
<g clip-path="url(#clip0_21_148)">
<path d="M38.3952 33.1277C37.1707 33.1277 35.9684 32.9362 34.8291 32.5597C34.2708 32.3693 33.5845 32.544 33.2438 32.8939L30.995 34.5915C28.387 33.1994 26.7806 31.5934 25.4074 29.0051L27.0551 26.8148C27.4832 26.3873 27.6367 25.7629 27.4528 25.1769C27.0746 24.0316 26.8826 22.8299 26.8826 21.6049C26.8826 20.7199 26.1627 20 25.2778 20H21.6048C20.7199 20 20 20.7199 20 21.6048C20 31.7481 28.252 40 38.3952 40C39.2801 40 40.0001 39.2801 40.0001 38.3952V34.7325C40 33.8477 39.2801 33.1277 38.3952 33.1277Z" fill="white"/>
</g>
<defs>
<clipPath id="clip0_21_148">
<rect width="20" height="20" fill="white" transform="translate(20 20)"/>
</clipPath>
</defs>
</svg>
