<svg width="81" height="81" viewBox="0 0 81 81" fill="none" xmlns="http://www.w3.org/2000/svg">
<g clip-path="url(#clip0_24_48)">
<path d="M40.4999 66.6026C54.9163 66.6026 66.6031 54.9158 66.6031 40.4994C66.6031 26.0831 54.9163 14.3963 40.4999 14.3963C26.0835 14.3963 14.3968 26.0831 14.3968 40.4994C14.3968 54.9158 26.0835 66.6026 40.4999 66.6026Z" fill="url(#paint0_linear_24_48)"/>
<path d="M32.6859 51.6692L42.1751 42.1802C42.6217 41.7348 42.8733 41.115 42.8733 40.4994V26.2614C42.8733 24.9497 41.8119 23.8883 40.5002 23.8883C39.1886 23.8883 38.1272 24.9497 38.1272 26.2614V39.5169L29.3305 48.3136C28.4036 49.2405 28.4036 50.7423 29.3305 51.6692C30.2572 52.5963 31.7588 52.5963 32.6859 51.6692ZM40.5001 0C18.2577 0 0.000632763 18.2548 0.000632763 40.4994C0.000632763 41.8111 1.2202 42.8725 2.53185 42.8725C3.84349 42.8725 4.90486 41.8111 4.90486 40.4994C4.90486 20.8711 20.8718 4.90423 40.5001 4.90423C60.1284 4.90423 76.0953 20.8711 76.0953 40.4994C76.0953 60.1278 60.1284 76.0947 40.5001 76.0947C33.6031 76.0947 27.9089 73.66 24.0098 71.3486H26.262C27.5736 71.3486 28.635 70.2873 28.635 68.9756C28.635 67.664 27.5736 66.6026 26.262 66.6026H16.7699C14.8386 66.8785 14.1261 68.1734 14.4664 69.5504L16.8394 79.2006C17.1596 80.4873 18.47 81.2466 19.7175 80.9271C20.9922 80.6096 21.7615 79.3212 21.4464 78.0511L20.6984 74.9012C25.1416 77.7009 31.953 80.9989 40.5001 80.9989C62.7425 80.9989 80.9995 62.7441 80.9995 40.4994C80.9995 18.2548 62.7425 0 40.5001 0Z" fill="url(#paint1_linear_24_48)"/>
</g>
<defs>
<linearGradient id="paint0_linear_24_48" x1="40.4999" y1="66.6026" x2="40.4999" y2="14.3963" gradientUnits="userSpaceOnUse">
<stop stop-color="#5558FF"/>
<stop offset="1" stop-color="#00C0FF"/>
</linearGradient>
<linearGradient id="paint1_linear_24_48" x1="40.5001" y1="80.9998" x2="40.5001" y2="0" gradientUnits="userSpaceOnUse">
<stop stop-color="#ADDCFF"/>
<stop offset="0.5028" stop-color="#EAF6FF"/>
<stop offset="1" stop-color="#EAF6FF"/>
</linearGradient>
<clipPath id="clip0_24_48">
<rect width="81" height="81" fill="white"/>
</clipPath>
</defs>
</svg>
