<svg width="80" height="80" viewBox="0 0 80 80" fill="none" xmlns="http://www.w3.org/2000/svg">
<g clip-path="url(#clip0_24_42)">
<path d="M80 35.293V44.707C80 45.7825 79.268 46.72 78.2247 46.9808L72.6705 48.3692C71.8816 51.4539 70.6552 54.4031 69.0109 57.1691L71.9652 62.0928C72.5186 63.015 72.3731 64.1955 71.6127 64.9559L64.9559 71.6127C64.1955 72.3733 63.0152 72.5186 62.0928 71.9652L57.1692 69.0109C54.4033 70.6552 51.4541 71.8817 48.3694 72.6706L46.9809 78.2247C46.7202 79.2681 45.7827 80 44.7072 80H35.2931C34.2177 80 33.2802 79.268 33.0194 78.2247L31.6309 72.6706C28.5463 71.8817 25.597 70.6553 22.8311 69.0109L17.9075 71.9652C16.9855 72.5186 15.8048 72.3731 15.0444 71.6127L8.3875 64.9559C7.62703 64.1955 7.48172 63.015 8.035 62.0928L10.9892 57.1691C9.345 54.4031 8.11859 51.4539 7.32969 48.3692L1.77547 46.9808C0.732031 46.72 0 45.7825 0 44.707V35.293C0 34.2175 0.732031 33.28 1.77531 33.0192L7.32953 31.6308C8.11844 28.5461 9.34484 25.597 10.9892 22.8309L8.035 17.9072C7.48156 16.985 7.62703 15.8045 8.38734 15.0441L15.0441 8.38719C15.8045 7.62672 16.9853 7.48156 17.9073 8.03469L22.8309 10.9891C25.5967 9.34484 28.5459 8.11844 31.6308 7.32953L33.0192 1.77531C33.28 0.732031 34.2175 0 35.293 0H44.707C45.7825 0 46.72 0.732031 46.9808 1.77531L48.3692 7.32953C51.4541 8.11844 54.4033 9.34484 57.1691 10.9891L62.0927 8.03469C63.015 7.48141 64.1953 7.62656 64.9559 8.38719L71.6127 15.0441C72.3731 15.8045 72.5184 16.985 71.965 17.9072L69.0108 22.8309C70.655 25.597 71.8816 28.5461 72.6705 31.6308L78.2247 33.0192C79.268 33.28 80 34.2175 80 35.293Z" fill="white"/>
<path d="M40 15.7812C26.6458 15.7812 15.7812 26.6458 15.7812 40C15.7812 53.3542 26.6458 64.2188 40 64.2188C53.3542 64.2188 64.2188 53.3542 64.2188 40C64.2188 26.6458 53.3542 15.7812 40 15.7812ZM32.4552 42.4422C33.2638 43.453 33.0998 44.9278 32.0891 45.7366C31.0783 46.5452 29.6034 46.3813 28.7948 45.3705L25.6698 41.4642C24.985 40.6083 24.985 39.3919 25.6698 38.5359L28.7948 34.6297C29.6034 33.6189 31.0784 33.455 32.0891 34.2636C33.0998 35.0722 33.2638 36.5472 32.4552 37.558L30.5014 40L32.4552 42.4422ZM46.1134 29.8508L38.3009 51.7258C37.8656 52.9448 36.5244 53.58 35.3055 53.1447C34.0864 52.7094 33.4512 51.3681 33.8866 50.1492L41.6991 28.2742C42.1344 27.0552 43.4756 26.42 44.6945 26.8553C45.9136 27.2906 46.5489 28.6317 46.1134 29.8508ZM54.3302 41.4641L51.2052 45.3703C50.3966 46.3811 48.9216 46.545 47.9109 45.7364C46.9002 44.9278 46.7362 43.4528 47.5448 42.442L49.4986 40L47.5448 37.5578C46.7362 36.547 46.9002 35.0722 47.9109 34.2634C48.9217 33.4548 50.3966 33.6187 51.2052 34.6295L54.3302 38.5358C55.015 39.3919 55.015 40.6081 54.3302 41.4641Z" fill="url(#paint0_linear_24_42)"/>
<path d="M40 15.7812C26.6458 15.7812 15.7812 26.6458 15.7812 40C15.7812 53.3542 26.6458 64.2188 40 64.2188C53.3542 64.2188 64.2188 53.3542 64.2188 40C64.2188 26.6458 53.3542 15.7812 40 15.7812ZM32.4552 42.4422C33.2638 43.453 33.0998 44.9278 32.0891 45.7366C31.0783 46.5452 29.6034 46.3813 28.7948 45.3705L25.6698 41.4642C24.985 40.6083 24.985 39.3919 25.6698 38.5359L28.7948 34.6297C29.6034 33.6189 31.0784 33.455 32.0891 34.2636C33.0998 35.0722 33.2638 36.5472 32.4552 37.558L30.5014 40L32.4552 42.4422ZM46.1134 29.8508L38.3009 51.7258C37.8656 52.9448 36.5244 53.58 35.3055 53.1447C34.0864 52.7094 33.4512 51.3681 33.8866 50.1492L41.6991 28.2742C42.1344 27.0552 43.4756 26.42 44.6945 26.8553C45.9136 27.2906 46.5489 28.6317 46.1134 29.8508ZM54.3302 41.4641L51.2052 45.3703C50.3966 46.3811 48.9216 46.545 47.9109 45.7364C46.9002 44.9278 46.7362 43.4528 47.5448 42.442L49.4986 40L47.5448 37.5578C46.7362 36.547 46.9002 35.0722 47.9109 34.2634C48.9217 33.4548 50.3966 33.6187 51.2052 34.6295L54.3302 38.5358C55.015 39.3919 55.015 40.6081 54.3302 41.4641Z" fill="#54C883"/>
</g>
<defs>
<linearGradient id="paint0_linear_24_42" x1="40" y1="64.2188" x2="40" y2="15.7812" gradientUnits="userSpaceOnUse">
<stop stop-color="#00B59C"/>
<stop offset="1" stop-color="#9CFFAC"/>
</linearGradient>
<clipPath id="clip0_24_42">
<rect width="80" height="80" fill="white"/>
</clipPath>
</defs>
</svg>
