<svg width="27" height="27" viewBox="0 0 27 27" fill="none" xmlns="http://www.w3.org/2000/svg">
<path d="M20.0685 16.4788C22.6155 12.3089 22.0984 6.78019 18.4951 3.17139C14.2702 -1.05355 7.39364 -1.05355 3.1687 3.17139C-1.05623 7.39633 -1.05623 14.2729 3.1687 18.4923C6.77201 22.0956 12.3007 22.6127 16.4762 20.0656L22.665 26.2545C23.6553 27.2447 25.2671 27.2447 26.2573 26.2545C27.2476 25.2643 27.2476 23.6524 26.2573 22.6622L20.0685 16.4788ZM16.2561 16.2588C13.2634 19.2515 8.40037 19.2515 5.4132 16.2588C2.42054 13.2661 2.42054 8.40305 5.4132 5.41589C8.40587 2.42322 13.2689 2.42322 16.2561 5.41589C19.2433 8.40305 19.2433 13.2661 16.2561 16.2588ZM12.1027 9.45929H15.3704V11.9513H12.1027V15.2191H9.61064V11.9513H6.34841V9.45929H9.61614V6.19156H12.1082V9.45929H12.1027Z" fill="white"/>
</svg>
           