<svg width="48" height="48" viewBox="0 0 48 48" fill="none" xmlns="http://www.w3.org/2000/svg">
<g clip-path="url(#clip0_402_1496)">
<path d="M0.251548 47.3962C0.51386 47.7738 0.945015 48.0004 1.40645 48.0004H46.5935C47.0549 48.0004 47.4861 47.7738 47.7484 47.3962C48.012 47.0171 48.0725 46.5338 47.9105 46.1012C47.3625 44.6359 46.3381 43.3505 45.922 42.8671C45.6555 42.5554 45.2655 42.3755 44.8549 42.3755H3.14504C2.73442 42.3755 2.34442 42.5554 2.07798 42.8671C1.66192 43.3505 0.637422 44.6359 0.0894544 46.1012C-0.0725453 46.5338 -0.0121704 47.0171 0.251548 47.3962Z" fill="#4C94B3"/>
<path d="M5.625 22.5938H14.1562V39.5625H5.625V22.5938Z" fill="#6BC067"/>
<path d="M19.7812 22.5938H28.2188V39.5625H19.7812V22.5938Z" fill="#6BC067"/>
<path d="M33.8438 22.5938H42.375V39.5625H33.8438V22.5938Z" fill="#6BC067"/>
<path d="M3.04378 19.3676C3.30777 19.6327 3.67518 19.7817 4.03855 19.7817C4.03874 19.7817 4.03902 19.7815 4.03921 19.7815C4.0394 19.7815 4.03968 19.7817 4.03987 19.7808H43.96C43.9602 19.7817 43.9605 19.7815 43.9607 19.7815C43.9609 19.7815 43.9612 19.7817 43.9613 19.7817C44.3247 19.7817 44.6921 19.6328 44.9561 19.3676C45.2423 19.0815 47.3807 16.8545 47.9998 14.1567H0C0.619218 16.8545 2.75756 19.0815 3.04378 19.3676Z" fill="#4C94B3"/>
<path d="M47.1054 11.3442L24.6294 0.148777C24.2339 -0.0489414 23.767 -0.0489414 23.3715 0.148777L0.895508 11.3442H47.1054Z" fill="#4C94B3"/>
</g>
<defs>
<clipPath id="clip0_402_1496">
<rect width="48" height="48" fill="white"/>
</clipPath>
</defs>
</svg>
