<svg width="48" height="48" viewBox="0 0 48 48" fill="none" xmlns="http://www.w3.org/2000/svg">
<path d="M35 6V9H41V6C41 5.20435 40.6839 4.44129 40.1213 3.87868C39.5587 3.31607 38.7956 3 38 3C37.2044 3 36.4413 3.31607 35.8787 3.87868C35.3161 4.44129 35 5.20435 35 6Z" fill="#4C94B3"/>
<path d="M30 24H42V30H30V24Z" fill="#6BC067"/>
<path d="M45 19H27C26.4696 19 25.9609 19.2107 25.5858 19.5858C25.2107 19.9609 25 20.4696 25 21V45C25 45.5304 25.2107 46.0391 25.5858 46.4142C25.9609 46.7893 26.4696 47 27 47H45C45.5304 47 46.0391 46.7893 46.4142 46.4142C46.7893 46.0391 47 45.5304 47 45V21C47 20.4696 46.7893 19.9609 46.4142 19.5858C46.0391 19.2107 45.5304 19 45 19ZM31 44H29C28.7348 44 28.4804 43.8946 28.2929 43.7071C28.1054 43.5196 28 43.2652 28 43C28 42.7348 28.1054 42.4804 28.2929 42.2929C28.4804 42.1054 28.7348 42 29 42H31C31.2652 42 31.5196 42.1054 31.7071 42.2929C31.8946 42.4804 32 42.7348 32 43C32 43.2652 31.8946 43.5196 31.7071 43.7071C31.5196 43.8946 31.2652 44 31 44ZM31 40H29C28.7348 40 28.4804 39.8946 28.2929 39.7071C28.1054 39.5196 28 39.2652 28 39C28 38.7348 28.1054 38.4804 28.2929 38.2929C28.4804 38.1054 28.7348 38 29 38H31C31.2652 38 31.5196 38.1054 31.7071 38.2929C31.8946 38.4804 32 38.7348 32 39C32 39.2652 31.8946 39.5196 31.7071 39.7071C31.5196 39.8946 31.2652 40 31 40ZM31 36H29C28.7348 36 28.4804 35.8946 28.2929 35.7071C28.1054 35.5196 28 35.2652 28 35C28 34.7348 28.1054 34.4804 28.2929 34.2929C28.4804 34.1054 28.7348 34 29 34H31C31.2652 34 31.5196 34.1054 31.7071 34.2929C31.8946 34.4804 32 34.7348 32 35C32 35.2652 31.8946 35.5196 31.7071 35.7071C31.5196 35.8946 31.2652 36 31 36ZM37 44H35C34.7348 44 34.4804 43.8946 34.2929 43.7071C34.1054 43.5196 34 43.2652 34 43C34 42.7348 34.1054 42.4804 34.2929 42.2929C34.4804 42.1054 34.7348 42 35 42H37C37.2652 42 37.5196 42.1054 37.7071 42.2929C37.8946 42.4804 38 42.7348 38 43C38 43.2652 37.8946 43.5196 37.7071 43.7071C37.5196 43.8946 37.2652 44 37 44ZM37 40H35C34.7348 40 34.4804 39.8946 34.2929 39.7071C34.1054 39.5196 34 39.2652 34 39C34 38.7348 34.1054 38.4804 34.2929 38.2929C34.4804 38.1054 34.7348 38 35 38H37C37.2652 38 37.5196 38.1054 37.7071 38.2929C37.8946 38.4804 38 38.7348 38 39C38 39.2652 37.8946 39.5196 37.7071 39.7071C37.5196 39.8946 37.2652 40 37 40ZM37 36H35C34.7348 36 34.4804 35.8946 34.2929 35.7071C34.1054 35.5196 34 35.2652 34 35C34 34.7348 34.1054 34.4804 34.2929 34.2929C34.4804 34.1054 34.7348 34 35 34H37C37.2652 34 37.5196 34.1054 37.7071 34.2929C37.8946 34.4804 38 34.7348 38 35C38 35.2652 37.8946 35.5196 37.7071 35.7071C37.5196 35.8946 37.2652 36 37 36ZM43 44H41C40.7348 44 40.4804 43.8946 40.2929 43.7071C40.1054 43.5196 40 43.2652 40 43C40 42.7348 40.1054 42.4804 40.2929 42.2929C40.4804 42.1054 40.7348 42 41 42H43C43.2652 42 43.5196 42.1054 43.7071 42.2929C43.8946 42.4804 44 42.7348 44 43C44 43.2652 43.8946 43.5196 43.7071 43.7071C43.5196 43.8946 43.2652 44 43 44ZM43 40H41C40.7348 40 40.4804 39.8946 40.2929 39.7071C40.1054 39.5196 40 39.2652 40 39C40 38.7348 40.1054 38.4804 40.2929 38.2929C40.4804 38.1054 40.7348 38 41 38H43C43.2652 38 43.5196 38.1054 43.7071 38.2929C43.8946 38.4804 44 38.7348 44 39C44 39.2652 43.8946 39.5196 43.7071 39.7071C43.5196 39.8946 43.2652 40 43 40ZM43 36H41C40.7348 36 40.4804 35.8946 40.2929 35.7071C40.1054 35.5196 40 35.2652 40 35C40 34.7348 40.1054 34.4804 40.2929 34.2929C40.4804 34.1054 40.7348 34 41 34H43C43.2652 34 43.5196 34.1054 43.7071 34.2929C43.8946 34.4804 44 34.7348 44 35C44 35.2652 43.8946 35.5196 43.7071 35.7071C43.5196 35.8946 43.2652 36 43 36ZM44 31C44 31.2652 43.8946 31.5196 43.7071 31.7071C43.5196 31.8946 43.2652 32 43 32H29C28.7348 32 28.4804 31.8946 28.2929 31.7071C28.1054 31.5196 28 31.2652 28 31V23C28 22.7348 28.1054 22.4804 28.2929 22.2929C28.4804 22.1054 28.7348 22 29 22H43C43.2652 22 43.5196 22.1054 43.7071 22.2929C43.8946 22.4804 44 22.7348 44 23V31Z" fill="#6BC067"/>
<path d="M33 17V5C33 3.93913 33.4214 2.92172 34.1716 2.17157C34.9217 1.42143 35.9391 1 37 1H5C3.93913 1 2.92172 1.42143 2.17157 2.17157C1.42143 2.92172 1 3.93913 1 5V43H23V21C23 19.9391 23.4214 18.9217 24.1716 18.1716C24.9217 17.4214 25.9391 17 27 17H33ZM6 8H26C26.2652 8 26.5196 8.10536 26.7071 8.29289C26.8946 8.48043 27 8.73478 27 9C27 9.26522 26.8946 9.51957 26.7071 9.70711C26.5196 9.89464 26.2652 10 26 10H6C5.73478 10 5.48043 9.89464 5.29289 9.70711C5.10536 9.51957 5 9.26522 5 9C5 8.73478 5.10536 8.48043 5.29289 8.29289C5.48043 8.10536 5.73478 8 6 8ZM20 35H6C5.73478 35 5.48043 34.8946 5.29289 34.7071C5.10536 34.5196 5 34.2652 5 34C5 33.7348 5.10536 33.4804 5.29289 33.2929C5.48043 33.1054 5.73478 33 6 33H20C20.2652 33 20.5196 33.1054 20.7071 33.2929C20.8946 33.4804 21 33.7348 21 34C21 34.2652 20.8946 34.5196 20.7071 34.7071C20.5196 34.8946 20.2652 35 20 35ZM20 30H6C5.73478 30 5.48043 29.8946 5.29289 29.7071C5.10536 29.5196 5 29.2652 5 29C5 28.7348 5.10536 28.4804 5.29289 28.2929C5.48043 28.1054 5.73478 28 6 28H20C20.2652 28 20.5196 28.1054 20.7071 28.2929C20.8946 28.4804 21 28.7348 21 29C21 29.2652 20.8946 29.5196 20.7071 29.7071C20.5196 29.8946 20.2652 30 20 30ZM20 25H6C5.73478 25 5.48043 24.8946 5.29289 24.7071C5.10536 24.5196 5 24.2652 5 24C5 23.7348 5.10536 23.4804 5.29289 23.2929C5.48043 23.1054 5.73478 23 6 23H20C20.2652 23 20.5196 23.1054 20.7071 23.2929C20.8946 23.4804 21 23.7348 21 24C21 24.2652 20.8946 24.5196 20.7071 24.7071C20.5196 24.8946 20.2652 25 20 25ZM20 20H6C5.73478 20 5.48043 19.8946 5.29289 19.7071C5.10536 19.5196 5 19.2652 5 19C5 18.7348 5.10536 18.4804 5.29289 18.2929C5.48043 18.1054 5.73478 18 6 18H20C20.2652 18 20.5196 18.1054 20.7071 18.2929C20.8946 18.4804 21 18.7348 21 19C21 19.2652 20.8946 19.5196 20.7071 19.7071C20.5196 19.8946 20.2652 20 20 20ZM26 15H6C5.73478 15 5.48043 14.8946 5.29289 14.7071C5.10536 14.5196 5 14.2652 5 14C5 13.7348 5.10536 13.4804 5.29289 13.2929C5.48043 13.1054 5.73478 13 6 13H26C26.2652 13 26.5196 13.1054 26.7071 13.2929C26.8946 13.4804 27 13.7348 27 14C27 14.2652 26.8946 14.5196 26.7071 14.7071C26.5196 14.8946 26.2652 15 26 15Z" fill="#4C94B3"/>
</svg>
