<svg width="48" height="48" viewBox="0 0 48 48" fill="none" xmlns="http://www.w3.org/2000/svg">
<g clip-path="url(#clip0_402_1466)">
<path d="M40.2047 23.1121C40.0504 22.0849 39.1697 21.3445 38.1331 21.3445H21.3418L18.2924 17.7351C17.6461 16.9762 16.6975 16.498 15.6995 16.498H4.78963C4.01223 16.498 3.27339 16.8621 2.77054 17.4575C2.26924 18.0544 2.05484 18.8719 2.18595 19.6385L2.47593 21.3445H2.28467C1.67385 21.3445 1.09543 21.5928 0.700554 22.0556C0.299512 22.5198 0.125214 23.1245 0.219304 23.7276L3.60656 45.7046C3.81171 47.0265 4.95005 47.9998 6.28737 47.9998H41.451C42.0618 47.9998 42.6402 47.7314 43.0351 47.2733C43.4315 46.8106 43.6104 46.2106 43.5194 45.6075L40.2047 23.1121Z" fill="#4C94B3"/>
<path d="M31.8441 6.71143H18.71C17.8045 6.71143 17.0703 7.52893 17.0703 8.4359C17.0703 9.34287 17.8061 10.1604 18.71 10.1604H31.8441C32.7526 10.1604 33.4852 9.34287 33.4852 8.4359C33.4852 7.52893 32.7495 6.71143 31.8441 6.71143Z" fill="#6BC067"/>
<path d="M47.3189 18.7963C46.941 18.3567 46.3872 18.0806 45.8057 18.0806H42.0791L42.9275 25.9394L44.9527 39.6689L47.7878 20.4004C47.8664 19.8266 47.6998 19.2374 47.3189 18.7963Z" fill="#4C94B3"/>
<path d="M13.9191 3.16977H36.8463V18.7348H40.0176V2.016C40.0161 0.911597 39.0937 0 37.9893 0H12.6342C11.4218 0 10.4717 0.997975 10.4717 2.21035V14.2601H13.9191V3.16977Z" fill="#6BC067"/>
<path d="M31.8447 13.0493H18.7106C17.9224 13.0493 17.2653 13.6725 17.1064 14.436C18.2309 14.7229 19.2536 15.3353 20.0232 16.2376L20.2623 16.4967H31.8447C32.7532 16.4967 33.4859 15.6792 33.4859 14.7723C33.4859 13.8653 32.7501 13.0493 31.8447 13.0493Z" fill="#6BC067"/>
</g>
<defs>
<clipPath id="clip0_402_1466">
<rect width="48" height="48" fill="white"/>
</clipPath>
</defs>
</svg>
