<svg width="48" height="48" viewBox="0 0 48 48" fill="none" xmlns="http://www.w3.org/2000/svg">
<g clip-path="url(#clip0_402_1445)">
<path d="M35.25 0C28.2601 0 22.5938 5.76013 22.5938 12.75C22.5938 19.7399 28.2601 25.4062 35.25 25.4062C42.2399 25.4062 48 19.7399 48 12.75C48 5.76013 42.2399 0 35.25 0ZM35.25 11.3438C37.5762 11.3438 39.4688 13.2363 39.4688 15.5625C39.4688 17.3936 38.2896 18.9397 36.6562 19.5223V22.5938H33.8438V19.5223C32.2104 18.9397 31.0312 17.3936 31.0312 15.5625H33.8438C33.8438 16.3385 34.474 16.9688 35.25 16.9688C36.026 16.9688 36.6562 16.3385 36.6562 15.5625C36.6562 14.7865 36.026 14.1562 35.25 14.1562C32.9238 14.1562 31.0312 12.2637 31.0312 9.9375C31.0312 8.10645 32.2104 6.5603 33.8438 5.97766V2.90625H36.6562V5.97766C38.2896 6.5603 39.4688 8.10645 39.4688 9.9375H36.6562C36.6562 9.1615 36.026 8.53125 35.25 8.53125C34.474 8.53125 33.8438 9.1615 33.8438 9.9375C33.8438 10.7135 34.474 11.3438 35.25 11.3438Z" fill="#6BC067"/>
<path d="M19.7812 21.1875H11.7949C11.5023 23.0526 11.3438 24.9551 11.3438 26.8125C11.3438 28.6699 11.5023 30.5724 11.7949 32.4375H19.7812V21.1875Z" fill="#4C94B3"/>
<path d="M19.7815 6.00732C16.5457 7.20007 13.7723 12.3329 12.3555 18.375H19.7815V6.00732Z" fill="#4C94B3"/>
<path d="M8.95349 32.4375C8.68689 30.5878 8.53125 28.6996 8.53125 26.8125C8.53125 24.9254 8.68689 23.0372 8.95349 21.1875H0.78186C0.286011 22.9808 0 24.8613 0 26.8125C0 28.7637 0.286011 30.6442 0.78186 32.4375H8.95349Z" fill="#4C94B3"/>
<path d="M42.267 26.5186C40.158 27.5974 37.7772 28.2189 35.2504 28.2189C34.7626 28.2189 34.2817 28.1903 33.8057 28.1456C33.7551 29.5885 33.6255 31.0233 33.4219 32.4376H41.4998C41.9956 30.6443 42.2816 28.7638 42.2816 26.8126C42.2816 26.7134 42.2681 26.6174 42.267 26.5186Z" fill="#4C94B3"/>
<path d="M19.7815 35.25H12.3555C13.7723 41.2921 16.5457 46.8073 19.7815 48V35.25Z" fill="#4C94B3"/>
<path d="M1.7666 18.375H9.4541C10.4572 13.7783 12.2314 9.65735 14.4961 6.82031C8.82825 8.71692 4.14148 12.9445 1.7666 18.375Z" fill="#4C94B3"/>
<path d="M27.8789 47.187C33.5468 45.2904 38.1398 40.6805 40.5146 35.25H32.9209C31.9178 39.8467 30.1436 44.35 27.8789 47.187Z" fill="#4C94B3"/>
<path d="M9.4541 35.25H1.7666C4.14148 40.6805 8.82825 45.2904 14.4961 47.187C12.2314 44.35 10.4572 39.8467 9.4541 35.25Z" fill="#4C94B3"/>
<path d="M22.5938 21.6162V32.4377H30.5801C30.8309 30.8389 30.9705 29.2155 31.0089 27.6136C27.5618 26.6282 24.6068 24.4807 22.5938 21.6162Z" fill="#4C94B3"/>
<path d="M22.5938 35.25V48C25.8296 46.8073 28.6029 41.2921 30.0198 35.25H22.5938Z" fill="#4C94B3"/>
</g>
<defs>
<clipPath id="clip0_402_1445">
<rect width="48" height="48" fill="white"/>
</clipPath>
</defs>
</svg>
