<svg width="48" height="48" viewBox="0 0 48 48" fill="none" xmlns="http://www.w3.org/2000/svg">
<g clip-path="url(#clip0_402_1482)">
<path d="M18.4868 38.0682L15.8863 40.6688H8.83753V39.0626C8.83753 38.286 8.20791 37.6563 7.43128 37.6563H1.40625C0.629625 37.6563 0 38.286 0 39.0626V45.0876C0 45.8643 0.629625 46.4939 1.40625 46.4939H7.43128C8.20791 46.4939 8.83753 45.8643 8.83753 45.0876V43.4813H16.4688C16.8418 43.4813 17.1995 43.3331 17.4631 43.0694L20.0636 40.4688H22.7936V37.6562H19.4813C19.1082 37.6563 18.7506 37.8045 18.4868 38.0682Z" fill="#4C94B3"/>
<path d="M32.558 23.9999C32.558 23.4973 32.4449 23.0208 32.2437 22.5937H23.0762L17.4631 16.9806C17.1995 16.7168 16.8417 16.5686 16.4688 16.5686H8.83753V14.9624C8.83753 14.1858 8.20791 13.5562 7.43128 13.5562H1.40625C0.629625 13.5562 0 14.1858 0 14.9624V20.9874C0 21.7641 0.629625 22.3937 1.40625 22.3937H7.43128C8.20791 22.3937 8.83753 21.7641 8.83753 20.9874V19.3812H15.8864L20.5051 23.9999L15.8863 28.6187H8.83753V27.0125C8.83753 26.2358 8.20791 25.6062 7.43128 25.6062H1.40625C0.629625 25.6062 0 26.2358 0 27.0125V33.0374C0 33.814 0.629625 34.4437 1.40625 34.4437H7.43128C8.20791 34.4437 8.83753 33.814 8.83753 33.0374V31.4312H16.4688C16.8418 31.4312 17.1995 31.283 17.4631 31.0192L23.0762 25.4062H32.2437C32.4449 24.979 32.558 24.5025 32.558 23.9999Z" fill="#6BC067"/>
<path d="M1.40625 10.3438H7.43128C8.20791 10.3438 8.83753 9.71416 8.83753 8.93754V7.33132H15.8864L18.4869 9.93194C18.7506 10.1957 19.1083 10.3439 19.4813 10.3439H22.7937V7.53138H20.0637L17.4632 4.93075C17.1996 4.66704 16.8418 4.51882 16.4689 4.51882H8.83762V2.9126C8.83762 2.13597 8.208 1.50635 7.43137 1.50635H1.40625C0.629625 1.50635 0 2.13597 0 2.9126V8.93763C0 9.71425 0.629625 10.3438 1.40625 10.3438Z" fill="#4C94B3"/>
<path d="M47.5094 29.0354L44.0645 26.0809C44.256 24.708 44.256 23.2925 44.0645 21.9196L47.5094 18.9651C48.0231 18.5244 48.1501 17.7805 47.8118 17.1945L44.4227 11.3247C44.0844 10.7387 43.3766 10.4769 42.7381 10.7013L38.4539 12.2086C37.3521 11.3454 36.1461 10.6477 34.8533 10.1254L34.0169 5.66607C33.8922 5.00101 33.3115 4.51904 32.6348 4.51904H27.0127C26.2361 4.51904 25.6064 5.14867 25.6064 5.92529V16.8064C25.6064 17.2533 25.8188 17.6735 26.1786 17.9385C26.5383 18.2036 27.0027 18.2819 27.4294 18.1495C31.2751 16.8958 35.4359 19.9454 35.3707 24.0003C35.4361 28.0543 31.2748 31.1056 27.4294 29.851C27.0026 29.7186 26.5384 29.7969 26.1786 30.062C25.8189 30.327 25.6064 30.7473 25.6064 31.1941V42.0753C25.6064 42.8519 26.2361 43.4815 27.0127 43.4815H32.6348C33.3115 43.4815 33.8923 42.9996 34.0169 42.3345L34.8533 37.8752C36.1461 37.3529 37.3521 36.6551 38.4539 35.792L42.7381 37.2993C43.3766 37.5238 44.0843 37.2619 44.4227 36.6759L47.8118 30.8061C48.1502 30.2199 48.0232 29.476 47.5094 29.0354Z" fill="#4C94B3"/>
</g>
<defs>
<clipPath id="clip0_402_1482">
<rect width="48" height="48" fill="white"/>
</clipPath>
</defs>
</svg>
