<svg width="48" height="48" viewBox="0 0 48 48" fill="none" xmlns="http://www.w3.org/2000/svg">
<g clip-path="url(#clip0_402_1517)">
<path d="M8.4375 17.0625C5.33522 17.0625 2.8125 14.5398 2.8125 11.4375C2.8125 8.33522 5.33522 5.8125 8.4375 5.8125C11.5398 5.8125 14.0625 8.33522 14.0625 11.4375C14.0625 14.5398 11.5398 17.0625 8.4375 17.0625Z" fill="#4C94B3"/>
<path d="M39.5625 17.0625C36.4602 17.0625 33.9375 14.5398 33.9375 11.4375C33.9375 8.33522 36.4602 5.8125 39.5625 5.8125C42.6648 5.8125 45.1875 8.33522 45.1875 11.4375C45.1875 14.5398 42.6648 17.0625 39.5625 17.0625Z" fill="#4C94B3"/>
<path d="M24 14.0625C20.1232 14.0625 16.9688 10.9081 16.9688 7.03125C16.9688 3.15441 20.1232 0 24 0C27.8768 0 31.0312 3.15441 31.0312 7.03125C31.0312 10.9081 27.8768 14.0625 24 14.0625Z" fill="#6BC067"/>
<path d="M25.4062 14.2046V23.9062C25.4062 24.6835 24.7773 25.3125 24 25.3125C23.2227 25.3125 22.5938 24.6835 22.5938 23.9062V14.2046C17.8359 14.8943 14.1562 18.9604 14.1562 23.9062V32.3437C14.1562 33.121 14.7852 33.75 15.5625 33.75H18.7129L19.7868 46.7118C19.8472 47.4396 20.4569 48 21.1875 48H26.8125C27.5431 48 28.1528 47.4396 28.2132 46.7118L29.2871 33.75H32.4375C33.2148 33.75 33.8438 33.121 33.8438 32.3437V23.9062C33.8438 18.9604 30.1641 14.8943 25.4062 14.2046Z" fill="#6BC067"/>
<path d="M11.25 32.5312V24.0938C11.25 21.9859 11.8172 20.0271 12.7323 18.2773C11.4696 17.5236 10.0119 17.0625 8.4375 17.0625C3.78478 17.0625 0 20.8473 0 25.5V32.5312C0 33.3085 0.628969 33.9375 1.40625 33.9375H2.94572L4.22559 46.7338C4.29703 47.452 4.90266 48 5.625 48H11.25C11.9723 48 12.578 47.452 12.6494 46.7338L13.6888 36.3423C12.253 35.6685 11.25 34.2194 11.25 32.5312Z" fill="#4C94B3"/>
<path d="M48.0003 25.5C48.0003 20.8473 44.2156 17.0625 39.5628 17.0625C37.9884 17.0625 36.5308 17.5236 35.2681 18.2773C36.1831 20.0271 36.7503 21.9859 36.7503 24.0938V32.5312C36.7503 34.2194 35.7473 35.6685 34.3115 36.3423L35.3509 46.7338C35.4224 47.452 36.028 48 36.7503 48H42.3753C43.0977 48 43.7033 47.452 43.7747 46.7338L45.0546 33.9375H46.5941C47.3714 33.9375 48.0003 33.3085 48.0003 32.5312V25.5Z" fill="#4C94B3"/>
</g>
<defs>
<clipPath id="clip0_402_1517">
<rect width="48" height="48" fill="white"/>
</clipPath>
</defs>
</svg>
