<svg width="48" height="48" viewBox="0 0 48 48" fill="none" xmlns="http://www.w3.org/2000/svg">
<path d="M11.25 33C11.6642 33 12 32.6642 12 32.25C12 31.8358 11.6642 31.5 11.25 31.5C10.8358 31.5 10.5 31.8358 10.5 32.25C10.5 32.6642 10.8358 33 11.25 33Z" fill="#4C94B3"/>
<path d="M5.25 37.5H14.25C14.8467 37.5 15.419 37.2629 15.841 36.841C16.2629 36.419 16.5 35.8467 16.5 35.25V29.25C16.5 28.6533 16.2629 28.081 15.841 27.659C15.419 27.2371 14.8467 27 14.25 27H5.25C4.65326 27 4.08097 27.2371 3.65901 27.659C3.23705 28.081 3 28.6533 3 29.25V35.25C3 35.8467 3.23705 36.419 3.65901 36.841C4.08097 37.2629 4.65326 37.5 5.25 37.5ZM11.25 30C11.695 30 12.13 30.132 12.5 30.3792C12.87 30.6264 13.1584 30.9778 13.3287 31.389C13.499 31.8001 13.5436 32.2525 13.4568 32.689C13.37 33.1254 13.1557 33.5263 12.841 33.841C12.5263 34.1557 12.1254 34.37 11.689 34.4568C11.2525 34.5436 10.8001 34.499 10.389 34.3287C9.97783 34.1584 9.62643 33.87 9.37919 33.5C9.13196 33.13 9 32.695 9 32.25C9 31.6533 9.23705 31.081 9.65901 30.659C10.081 30.2371 10.6533 30 11.25 30Z" fill="#6BC067"/>
<path d="M41.25 19.5H9.75C8.7558 19.5012 7.80267 19.8967 7.09966 20.5997C6.39666 21.3027 6.00119 22.2558 6 23.25V25.5H14.25C15.2442 25.5012 16.1973 25.8967 16.9003 26.5997C17.6033 27.3027 17.9988 28.2558 18 29.25V35.25C17.9988 36.2442 17.6033 37.1973 16.9003 37.9003C16.1973 38.6033 15.2442 38.9988 14.25 39H6V41.25C6.00119 42.2442 6.39666 43.1973 7.09966 43.9003C7.80267 44.6033 8.7558 44.9988 9.75 45H41.25C42.2442 44.9988 43.1973 44.6033 43.9003 43.9003C44.6033 43.1973 44.9988 42.2442 45 41.25V23.25C44.9988 22.2558 44.6033 21.3027 43.9003 20.5997C43.1973 19.8967 42.2442 19.5012 41.25 19.5ZM36.75 42H32.25C32.0511 42 31.8603 41.921 31.7197 41.7803C31.579 41.6397 31.5 41.4489 31.5 41.25C31.5 41.0511 31.579 40.8603 31.7197 40.7197C31.8603 40.579 32.0511 40.5 32.25 40.5H36.75C36.9489 40.5 37.1397 40.579 37.2803 40.7197C37.421 40.8603 37.5 41.0511 37.5 41.25C37.5 41.4489 37.421 41.6397 37.2803 41.7803C37.1397 41.921 36.9489 42 36.75 42ZM41.25 42H39.75C39.5511 42 39.3603 41.921 39.2197 41.7803C39.079 41.6397 39 41.4489 39 41.25C39 41.0511 39.079 40.8603 39.2197 40.7197C39.3603 40.579 39.5511 40.5 39.75 40.5H41.25C41.4489 40.5 41.6397 40.579 41.7803 40.7197C41.921 40.8603 42 41.0511 42 41.25C42 41.4489 41.921 41.6397 41.7803 41.7803C41.6397 41.921 41.4489 42 41.25 42Z" fill="#4C94B3"/>
<path d="M11.335 18.0002H18.4097C20.2187 15.9858 21.8784 13.8422 23.3755 11.5862C24.5152 9.85597 25.5566 8.06288 26.4947 6.21548L18.7915 4.51973C18.5945 4.47401 18.3883 4.48865 18.1997 4.56173C18.1332 4.59012 18.0718 4.62941 18.0182 4.67798C17.9475 4.74402 17.8929 4.82534 17.8585 4.91573C17.5726 6.0531 17.2279 7.17486 16.8257 8.27648C16.669 8.70548 16.1702 10.0352 15.418 11.5765C14.2973 13.8613 12.928 16.0156 11.335 18.0002Z" fill="#6BC067"/>
<path d="M39.9514 18.0002C42.7016 13.2752 44.6659 9.80345 44.9014 9.24695C45.002 9.04359 45.0221 8.80974 44.9576 8.5922C44.9177 8.48393 44.8547 8.38565 44.773 8.30419C44.6913 8.22272 44.5928 8.16003 44.4844 8.12045L30.4294 3.04445C30.2684 2.98881 30.094 2.98532 29.931 3.03446C29.7679 3.0836 29.6245 3.18289 29.5211 3.3182C28.168 6.49192 26.5297 9.53639 24.6266 12.4142C23.3336 14.361 21.9222 16.2265 20.4004 18.0002H39.9514Z" fill="#6BC067"/>
</svg>
